<svg width="209" height="40" viewBox="0 0 209 40" fill="none" xmlns="http://www.w3.org/2000/svg">
<path d="M32.6696 38.755C30.9022 38.755 29.2451 37.985 28.1022 36.6623C25.404 38.032 22.3959 38.755 19.3579 38.755C8.68472 38.755 0 30.0605 0 19.3797C0 8.69871 8.68472 0 19.3579 0C30.0268 0 38.7073 8.71998 38.7115 19.435L38.3036 19.4391L38.7115 19.435V19.4391V32.7063C38.7115 36.0412 36.0008 38.755 32.6696 38.755ZM28.612 34.4503L29.0453 35.1054C29.8526 36.3263 31.2081 37.0536 32.6654 37.0536C35.0618 37.0536 37.0078 35.1012 37.0078 32.7063V19.4435C37.0078 9.66005 29.0879 1.70571 19.3537 1.70571C9.61948 1.70146 1.69955 9.63028 1.69955 19.3797C1.69955 29.129 9.61948 37.0579 19.3579 37.0579C22.3533 37.0579 25.319 36.288 27.9279 34.8332L28.612 34.4503Z" fill="white"/>
<path fill-rule="evenodd" clip-rule="evenodd" d="M18.5974 34.3341C26.8445 34.6532 33.7913 28.2047 34.1015 19.9355C34.1312 19.2209 34.11 18.5275 34.0378 17.8342C34.0675 18.6722 33.8423 19.5527 33.324 20.1823C32.1555 21.5988 30.1458 21.2584 29.8143 19.7995C29.6401 19.004 29.9801 18.0384 30.6598 17.5833C26.8912 16.9835 25.8204 20.6247 23.8489 22.56C21.7245 24.6529 18.4317 23.8956 17.8707 21.4115C17.5606 20.0334 18.1384 18.3574 19.3068 17.5407C17.3439 17.0856 15.8483 17.664 14.4674 19.0508C13.1545 20.3567 12.2155 22.0922 10.6264 23.0236C9.13079 23.9127 7.05309 23.9977 5.72319 22.7429C4.7417 21.8198 4.27857 20.3396 4.23608 18.7786C3.92167 27.0562 10.3502 34.0108 18.5974 34.3341Z" fill="url(#paint0_linear_25_51)"/>
<path fill-rule="evenodd" clip-rule="evenodd" d="M17.824 13.1044C25.3785 13.0534 24.3375 3.81017 17.7305 4.43972C10.4012 5.14158 4.52924 11.1988 4.24033 18.7873C4.2828 20.3483 4.74593 21.8287 5.72742 22.7517C7.05732 24.0023 9.13504 23.9214 10.6306 23.0325C11.2807 22.6581 11.8161 22.1435 12.3132 21.5819C10.8771 23.2579 8.6804 22.4497 8.55718 20.2974C8.44246 18.196 9.59815 16.0735 11.2637 14.8314C13.0653 13.4745 15.4191 13.1129 17.824 13.1044Z" fill="url(#paint1_linear_25_51)"/>
<path fill-rule="evenodd" clip-rule="evenodd" d="M27.3628 8.15762C28.7564 8.20866 29.8399 9.3784 29.7805 10.7779C29.7294 12.1646 28.561 13.2535 27.1801 13.1982C25.7865 13.1344 24.7116 11.9646 24.7668 10.5779C24.8135 9.17849 25.9776 8.10231 27.3628 8.15762Z" fill="url(#paint2_linear_25_51)"/>
<path fill-rule="evenodd" clip-rule="evenodd" d="M31.1188 12.9494C31.9431 12.9792 32.5846 13.6725 32.5549 14.502C32.5252 15.3314 31.8198 15.9822 30.9956 15.9524C30.1713 15.9099 29.5296 15.2166 29.5595 14.3871C29.5934 13.5619 30.2945 12.9196 31.1188 12.9494Z" fill="url(#paint3_linear_25_51)"/>
<path d="M71.1326 14.5234V32.1496H68.8995V29.12C67.9501 30.2756 66.8821 31.145 65.6954 31.7283C64.5195 32.3115 63.2304 32.6031 61.828 32.6031C59.3358 32.6031 57.2052 31.7012 55.4358 29.8976C53.6775 28.0831 52.7983 25.88 52.7983 23.2878C52.7983 20.7497 53.6882 18.5789 55.4683 16.7753C57.2484 14.9716 59.3898 14.0698 61.8926 14.0698C63.3383 14.0698 64.6436 14.3776 65.8087 14.9932C66.9846 15.6088 68.0149 16.5323 68.8995 17.7635V14.5234H71.1326ZM62.0706 16.2569C60.8084 16.2569 59.6433 16.5701 58.5753 17.1965C57.5073 17.8122 56.655 18.6816 56.0185 19.8047C55.3928 20.928 55.0799 22.116 55.0799 23.3689C55.0799 24.6109 55.3981 25.7989 56.0346 26.9329C56.6711 28.0669 57.5234 28.9525 58.5914 29.5897C59.6702 30.2162 60.8246 30.5294 62.0545 30.5294C63.2952 30.5294 64.4711 30.2162 65.5822 29.5897C66.6935 28.9635 67.5457 28.1156 68.139 27.0464C68.7431 25.977 69.0452 24.7729 69.0452 23.4337C69.0452 21.3923 68.3709 19.6859 67.0225 18.3142C65.6847 16.9427 64.034 16.2569 62.0706 16.2569Z" fill="white"/>
<path d="M76.2379 7.71924H78.5033V32.1496H76.2379V7.71924Z" fill="white"/>
<path d="M100.632 18.1847L98.8361 19.3026C97.2826 17.2397 95.1627 16.2082 92.4765 16.2082C90.3297 16.2082 88.5442 16.8995 87.1201 18.2819C85.7069 19.6643 85.0002 21.3438 85.0002 23.3202C85.0002 24.6056 85.3238 25.8151 85.9713 26.9492C86.6293 28.0831 87.5247 28.9635 88.6575 29.5897C89.8011 30.2162 91.0794 30.5294 92.4926 30.5294C95.0817 30.5294 97.1962 29.4981 98.8361 27.4351L100.632 28.6177C99.7909 29.8814 98.6581 30.8642 97.2341 31.5663C95.8207 32.2576 94.2079 32.6031 92.3955 32.6031C89.6122 32.6031 87.3035 31.7174 85.4696 29.9463C83.6354 28.1749 82.7186 26.0203 82.7186 23.4822C82.7186 21.7758 83.1447 20.1936 83.997 18.7355C84.86 17.2667 86.0413 16.1218 87.5408 15.301C89.0403 14.4802 90.7179 14.0698 92.5736 14.0698C93.7387 14.0698 94.8606 14.248 95.9394 14.6044C97.0291 14.9608 97.9514 15.4252 98.7067 15.9976C99.4619 16.5701 100.104 17.2991 100.632 18.1847Z" fill="white"/>
<path d="M105.333 7.71924H107.598V17.6824C108.516 16.4729 109.524 15.571 110.624 14.977C111.725 14.3722 112.917 14.0698 114.201 14.0698C115.517 14.0698 116.682 14.4046 117.696 15.0742C118.721 15.7438 119.476 16.6457 119.962 17.7797C120.447 18.903 120.69 20.6687 120.69 23.0772V32.1496H118.424V23.7414C118.424 21.711 118.343 20.3557 118.182 19.6751C117.901 18.5087 117.389 17.6339 116.644 17.0507C115.911 16.4567 114.945 16.1597 113.748 16.1597C112.378 16.1597 111.148 16.6133 110.058 17.5205C108.979 18.4277 108.267 19.551 107.922 20.8903C107.706 21.7543 107.598 23.3527 107.598 25.6856V32.1496H105.333V7.71924Z" fill="white"/>
<path d="M140.715 26.301L142.625 27.3056C141.999 28.5369 141.276 29.5304 140.456 30.2864C139.636 31.0424 138.714 31.6203 137.689 32.0198C136.664 32.4087 135.505 32.6031 134.21 32.6031C131.34 32.6031 129.096 31.6635 127.478 29.7842C125.86 27.8943 125.051 25.761 125.051 23.385C125.051 21.1494 125.736 19.1567 127.106 17.4071C128.843 15.1822 131.168 14.0698 134.08 14.0698C137.079 14.0698 139.475 15.2092 141.265 17.4882C142.538 19.0974 143.186 21.1062 143.207 23.5146H127.381C127.424 25.5668 128.077 27.2515 129.339 28.5692C130.601 29.876 132.16 30.5294 134.016 30.5294C134.911 30.5294 135.78 30.3729 136.621 30.0596C137.473 29.7464 138.196 29.3306 138.79 28.8122C139.383 28.2937 140.025 27.4567 140.715 26.301ZM140.715 21.5544C140.413 20.3447 139.971 19.3781 139.388 18.6546C138.816 17.9309 138.056 17.3477 137.107 16.9049C136.157 16.4621 135.159 16.2406 134.113 16.2406C132.387 16.2406 130.903 16.7969 129.663 17.9094C128.756 18.7193 128.072 19.9344 127.608 21.5544H140.715Z" fill="white"/>
<path d="M147.762 14.5234H150.012V17.569C150.799 16.4458 151.608 15.625 152.439 15.1066C153.582 14.4154 154.785 14.0698 156.048 14.0698C156.9 14.0698 157.709 14.2372 158.475 14.572C159.241 14.9068 159.867 15.355 160.352 15.9166C160.837 16.4675 161.258 17.2613 161.614 18.2981C162.369 16.9157 163.313 15.868 164.446 15.1552C165.579 14.4316 166.798 14.0698 168.103 14.0698C169.322 14.0698 170.396 14.3776 171.324 14.9932C172.262 15.6088 172.958 16.4675 173.411 17.569C173.864 18.6708 174.091 20.3231 174.091 22.5264V32.1496H171.777V22.5264C171.777 20.6363 171.642 19.3403 171.372 18.6382C171.102 17.9256 170.638 17.3531 169.98 16.9211C169.333 16.4891 168.556 16.273 167.65 16.273C166.55 16.273 165.541 16.5971 164.624 17.2451C163.718 17.893 163.054 18.757 162.634 19.8372C162.213 20.9172 162.003 22.7209 162.003 25.2482V32.1496H159.753V23.1259C159.753 20.9982 159.618 19.5563 159.349 18.8003C159.09 18.0335 158.631 17.4233 157.973 16.9697C157.315 16.5053 156.533 16.273 155.627 16.273C154.58 16.273 153.599 16.5917 152.682 17.2289C151.775 17.8553 151.101 18.7031 150.659 19.7723C150.227 20.8415 150.012 22.4779 150.012 24.681V32.1496H147.762V14.5234Z" fill="white"/>
<path d="M180.005 7.26562C180.523 7.26562 180.965 7.44924 181.332 7.81644C181.699 8.18366 181.883 8.62648 181.883 9.14488C181.883 9.65249 181.699 10.0899 181.332 10.4571C180.965 10.8243 180.523 11.0079 180.005 11.0079C179.498 11.0079 179.062 10.8243 178.695 10.4571C178.327 10.0899 178.144 9.65249 178.144 9.14488C178.144 8.62648 178.327 8.18366 178.695 7.81644C179.062 7.44924 179.498 7.26562 180.005 7.26562ZM178.872 14.5234H181.155V32.1496H178.872V14.5234Z" fill="white"/>
<path d="M195.03 16.4513L193.574 17.9579C192.365 16.7807 191.184 16.1921 190.03 16.1921C189.295 16.1921 188.665 16.435 188.137 16.9211C187.619 17.4071 187.36 17.9741 187.36 18.6221C187.36 19.1946 187.575 19.74 188.006 20.2584C188.439 20.7876 189.344 21.4085 190.725 22.1214C192.408 22.9962 193.551 23.8386 194.156 24.6487C194.75 25.4696 195.045 26.3929 195.045 27.4189C195.045 28.8663 194.54 30.092 193.525 31.0965C192.511 32.1009 191.243 32.6031 189.723 32.6031C188.708 32.6031 187.737 32.3817 186.809 31.9389C185.892 31.496 185.131 30.8859 184.528 30.1082L185.951 28.4882C187.106 29.7949 188.331 30.4485 189.625 30.4485C190.532 30.4485 191.303 30.1569 191.939 29.5736C192.575 28.9904 192.895 28.3045 192.895 27.5162C192.895 26.8682 192.683 26.2902 192.262 25.7828C191.842 25.2859 190.893 24.6595 189.415 23.9035C187.829 23.0826 186.75 22.2727 186.179 21.4734C185.607 20.6742 185.321 19.7616 185.321 18.7355C185.321 17.3963 185.774 16.2838 186.679 15.3982C187.596 14.5126 188.752 14.0698 190.143 14.0698C191.76 14.0698 193.39 14.8636 195.03 16.4513Z" fill="white"/>
<path d="M201.365 7.97845H203.646V14.5234H207.239V16.4675H203.646V32.1496H201.365V16.4675H198.275V14.5234H201.365V7.97845Z" fill="white"/>
<defs>
<linearGradient id="paint0_linear_25_51" x1="20.9363" y1="11.8733" x2="16.3662" y2="32.6691" gradientUnits="userSpaceOnUse">
<stop stop-color="#521C89"/>
<stop offset="0.5164" stop-color="#8D1AF1"/>
<stop offset="1" stop-color="#FFA5F6"/>
</linearGradient>
<linearGradient id="paint1_linear_25_51" x1="11.4876" y1="22.648" x2="14.7882" y2="8.69976" gradientUnits="userSpaceOnUse">
<stop stop-color="#1837D8"/>
<stop offset="0.5074" stop-color="#00C1FF"/>
<stop offset="1" stop-color="#70E6FF"/>
</linearGradient>
<linearGradient id="paint2_linear_25_51" x1="23.7571" y1="25.5515" x2="27.0577" y2="11.6033" gradientUnits="userSpaceOnUse">
<stop stop-color="#1837D8"/>
<stop offset="0.5074" stop-color="#00C1FF"/>
<stop offset="1" stop-color="#70E6FF"/>
</linearGradient>
<linearGradient id="paint3_linear_25_51" x1="28.1877" y1="26.6021" x2="31.4882" y2="12.6538" gradientUnits="userSpaceOnUse">
<stop stop-color="#1837D8"/>
<stop offset="0.5074" stop-color="#00C1FF"/>
<stop offset="1" stop-color="#70E6FF"/>
</linearGradient>
</defs>
</svg>
