<svg width="507" height="117" viewBox="0 0 507 117" fill="none" xmlns="http://www.w3.org/2000/svg">
<path d="M89.558 91.7455C84.7752 91.7455 81.2777 90.9332 79.1036 89.318C76.9296 87.7024 75.7671 85.1644 75.6252 81.7121C75.5591 80.1522 75.7292 77.9737 76.2205 75.1954L86.42 17.1457C87.4219 11.4598 89.3692 7.27849 92.1671 4.61094C94.965 1.94336 99.4452 0.595734 105.609 0.595734H144.808C149.827 0.595734 153.4 1.408 155.518 3.02331C157.635 4.63862 158.769 7.17696 158.911 10.6291C158.977 12.1891 158.807 14.3766 158.315 17.1457L148.116 75.1954C147.123 80.872 145.167 85.0628 142.379 87.7302C139.58 90.3977 135.024 91.7455 128.757 91.7455H89.558ZM133.125 23.6716C133.313 22.5547 133.399 21.8902 133.389 21.6686C133.323 19.8872 131.726 18.9918 128.663 18.9918H114.446C112.631 18.9918 111.346 19.2964 110.628 19.9149C109.909 20.5241 109.484 21.7886 109.153 23.6716L101.298 68.8448C101.223 69.2972 101.128 69.6849 101.09 70.0174C101.043 70.3494 101.033 70.6909 101.043 71.0233C101.109 72.5833 102.394 73.3677 104.909 73.3677H119.116C121.167 73.3677 122.642 73.0356 123.53 72.3617C124.419 71.6972 124.986 70.5247 125.27 68.8542L133.125 23.6716Z" fill="white"/>
<path d="M16.7793 91.9131C10.966 91.9131 6.75968 90.9071 4.1697 88.9038C1.57974 86.9009 0.199683 83.7811 0.0295389 79.5444C-0.0177234 78.4275 -0.00827088 77.2922 0.0578962 76.12C0.124064 74.9478 0.332018 73.6463 0.587235 72.197L9.53873 21.2363C10.7108 14.5443 13.0929 9.59682 16.5525 6.36619C20.0121 3.13558 25.3999 1.52026 32.7067 1.52026H75.8666L72.7189 19.9071H42.3862C39.6543 19.9071 37.811 20.3225 36.8752 21.1624C35.9394 21.9932 35.2305 23.7008 34.7674 26.2576L27.3093 67.342C27.2148 67.8956 27.1486 68.3758 27.1108 68.7635C27.073 69.1509 27.0541 69.5754 27.073 70.0188C27.1203 71.2463 27.5551 72.1417 28.3775 72.6956C29.1998 73.2492 30.6933 73.5354 32.8674 73.5354H63.531L60.2797 91.9221H16.7793V91.9131Z" fill="white"/>
<path d="M357.223 92.6701C352.317 92.6701 348.773 91.8578 346.599 90.2422C344.425 88.627 343.262 86.0886 343.13 82.6364C343.063 81.0765 343.234 78.8983 343.725 76.12L353.924 18.0703C354.926 12.3844 356.864 8.20302 359.671 5.53547C362.469 2.85866 367.006 1.52026 373.283 1.52026H413.768C418.107 1.52026 421.245 2.33254 423.193 3.94785C425.138 5.56315 426.178 7.99074 426.313 11.2214C426.388 13.2243 426.245 15.292 425.877 17.4057L423.467 31.1128L421.396 42.9736C421.028 45.0875 420.45 47.155 419.665 49.1579C418.408 52.3887 416.52 54.8162 414.005 56.4317C411.49 58.0469 408.059 58.8592 403.728 58.8592H391.442H370.305L368.434 69.2712C368.339 69.8157 368.273 70.2956 368.235 70.6923C368.197 71.08 368.179 71.4403 368.197 71.7724C368.235 72.7787 368.556 73.4432 369.133 73.7753C369.71 74.1077 370.75 74.2739 372.233 74.2739H414.298L411.111 92.6607H357.223V92.6701ZM394.655 40.4724C396.025 40.4724 397.039 40.3062 397.681 39.9738C398.322 39.6417 398.822 39.0231 399.163 38.1371C399.512 37.2417 399.741 36.5217 399.843 35.9679L401.866 24.4392C401.963 23.8854 401.982 23.1562 401.952 22.2701C401.915 21.384 401.629 20.7655 401.1 20.4332C400.571 20.101 399.629 19.9348 398.255 19.9348H381.893C379.956 19.9348 378.65 20.2394 378.001 20.8579C377.336 21.467 376.781 22.7224 376.439 24.6146L373.595 40.4909H394.655V40.4724Z" fill="white"/>
<path d="M455.519 7.51998C452.062 10.7506 449.678 15.6981 448.507 22.39L466.096 26.2576C466.562 23.7008 467.271 21.9932 468.206 21.1624C469.14 20.3225 470.983 19.9071 473.716 19.9071H503.579L506.728 1.52026H464.036C456.731 1.52026 458.98 4.28935 455.519 7.51998Z" fill="white"/>
<path d="M430.55 92.4393L446.514 1.52026H470.477C465.136 31.602 464.163 37.3711 458 72.2711L457.85 73.1477L457.501 75.1232L457.141 77.1629L456.773 79.2677L456.386 81.4369C454.333 93.0391 456.555 80.8367 454.502 92.4393H430.55Z" fill="white"/>
<path d="M233.004 1.52935C238.817 1.52935 243.023 2.53545 245.613 4.53843C248.203 6.54144 249.583 9.66129 249.753 13.898C249.801 15.0149 249.791 16.1502 249.725 17.3225C249.659 18.4947 249.451 19.7962 249.196 21.2454L240.244 72.206C239.072 78.898 236.69 83.8455 233.231 87.0762C229.771 90.307 224.383 91.9222 217.076 91.9222H173.916L177.064 73.5354H207.397C210.129 73.5354 211.972 73.1199 212.908 72.2801C213.844 71.4494 214.553 69.7417 215.016 67.1849L222.474 26.1006C222.568 25.5467 222.634 25.0668 222.672 24.6791C222.71 24.2914 222.729 23.8668 222.71 23.4237C222.663 22.1961 222.228 21.3008 221.405 20.7469C220.583 20.1931 219.09 19.907 216.915 19.907H186.252L189.503 1.52011H233.004V1.52935Z" fill="white"/>
<path d="M179.011 1.52026L158.793 116.226H182.745L202.973 1.52026H179.011Z" fill="white"/>
<path d="M322.803 1.52935C328.616 1.52935 332.822 2.53545 335.413 4.53843C338.003 6.54144 339.382 9.66129 339.553 13.898C339.6 15.0149 339.59 16.1502 339.524 17.3225C339.458 18.4947 339.25 19.7962 338.995 21.2454L330.043 72.206C328.871 78.898 326.489 83.8455 323.03 87.0762C319.57 90.307 314.182 91.9222 306.875 91.9222H263.715L266.863 73.5354H297.196C299.928 73.5354 301.771 73.1199 302.707 72.2801C303.643 71.4494 304.352 69.7417 304.815 67.1849L312.273 26.1006C312.367 25.5467 312.433 25.0668 312.471 24.6791C312.509 24.2914 312.528 23.8668 312.509 23.4237C312.462 22.1961 312.027 21.3008 311.205 20.7469C310.382 20.1931 308.889 19.907 306.715 19.907H276.051L279.303 1.52011H322.803V1.52935Z" fill="white"/>
<path d="M248.592 116.226L268.811 1.52026H292.772C287.432 31.602 286.458 37.3711 280.295 72.2711L280.144 73.1477L279.794 75.1231L279.435 77.1629L279.066 79.2677L278.679 81.4368C276.628 93.0391 274.595 104.623 272.544 116.226H248.592Z" fill="white"/>
</svg>
