<svg width="10" height="13" viewBox="0 0 10 13" fill="none" xmlns="http://www.w3.org/2000/svg">
            <path d="M5.07625 0.169022L0.994141 6.61974L5.07625 8.97013L9.21057 6.61974L5.07625 0.169022Z" fill="white"/>
            <path d="M1.03174 6.61893L1.03675 6.61168L5.12491 4.88028L6.01038 8.46061L5.11405 8.96933L1.03174 6.61893Z" fill="#C1CCF7"/>
            <path d="M5.12207 0.177841L9.25208 6.61729L5.12207 8.96608V0.177841Z" fill="#C1CCF7"/>
            <path d="M5.13831 12.891V9.67127L1.05127 7.38527L5.13831 12.891Z" fill="white"/>
            <path d="M5.13428 12.891V9.67127L9.22119 7.38527L5.13428 12.891Z" fill="#C1CCF7"/>
            <path d="M5.12207 8.95001V4.96077L5.14212 4.88028L9.23534 6.61169L9.24036 6.61893L8.21287 7.20975L5.13627 8.95806L5.12207 8.95001Z" fill="#8198EE"/>
            </svg>