<svg width="199" height="45" viewBox="0 0 199 45" fill="none" xmlns="http://www.w3.org/2000/svg">
<path d="M32.6103 33.89C30.8688 33.89 29.5952 33.5942 28.8036 33.0061C28.012 32.4179 27.5887 31.4937 27.537 30.2366C27.513 29.6686 27.5749 28.8754 27.7538 27.8637L31.4677 6.72638C31.8325 4.656 32.5415 3.13347 33.5603 2.16214C34.5791 1.19081 36.2105 0.700104 38.4547 0.700104H52.7282C54.5558 0.700104 55.8568 0.995872 56.6278 1.58405C57.3988 2.17222 57.8117 3.09649 57.8634 4.35351C57.8874 4.92153 57.8255 5.71808 57.6466 6.72638L53.9328 27.8637C53.5713 29.9307 52.8589 31.4567 51.8436 32.428C50.8247 33.3993 49.1657 33.89 46.8838 33.89H32.6103ZM48.474 9.10261C48.5428 8.69593 48.5738 8.45394 48.5704 8.37328C48.5462 7.72461 47.9646 7.39859 46.8493 7.39859H41.6727C41.0119 7.39859 40.5439 7.5095 40.2823 7.73469C40.0207 7.95652 39.8659 8.41697 39.7453 9.10261L36.8851 25.5513C36.8576 25.7161 36.8232 25.8572 36.8094 25.9783C36.7922 26.0992 36.7888 26.2235 36.7922 26.3446C36.8164 26.9126 37.2843 27.1982 38.1999 27.1982H43.3731C44.1199 27.1982 44.6569 27.0773 44.9804 26.8319C45.3039 26.59 45.5105 26.163 45.6138 25.5547L48.474 9.10261Z" fill="white"/>
<path d="M6.10976 33.951C3.993 33.951 2.46137 33.5847 1.51829 32.8553C0.575224 32.126 0.0727097 30.99 0.0107559 29.4473C-0.00645352 29.0406 -0.00301163 28.6272 0.0210814 28.2004C0.0451747 27.7736 0.120896 27.2996 0.213827 26.7719L3.47329 8.21582C3.90007 5.77909 4.76743 3.9776 6.02716 2.80125C7.28689 1.6249 9.24875 1.03672 11.9093 1.03672H27.6249L26.4788 7.73185H15.4339C14.4391 7.73185 13.7679 7.88309 13.4272 8.18893C13.0864 8.49143 12.8283 9.11322 12.6597 10.0442L9.94401 25.0041C9.90959 25.2057 9.8855 25.3805 9.87173 25.5217C9.85797 25.6627 9.85108 25.8173 9.85797 25.9788C9.87518 26.4257 10.0335 26.7518 10.3329 26.9535C10.6324 27.155 11.1762 27.2592 11.9678 27.2592H23.1332L21.9493 33.9543H6.10976V33.951Z" fill="white"/>
<path d="M130.074 34.2267C128.288 34.2267 126.997 33.9309 126.205 33.3427C125.414 32.7545 124.99 31.8302 124.942 30.5732C124.918 30.0052 124.98 29.2121 125.159 28.2004L128.873 7.063C129.238 4.99262 129.943 3.47008 130.965 2.49876C131.984 1.52407 133.636 1.03672 135.922 1.03672H150.663C152.243 1.03672 153.386 1.33249 154.095 1.92067C154.803 2.50884 155.182 3.39278 155.231 4.56914C155.258 5.29847 155.207 6.05135 155.073 6.82101L154.195 11.8121L153.441 16.1309C153.307 16.9006 153.096 17.6535 152.811 18.3828C152.353 19.5592 151.665 20.4431 150.75 21.0314C149.834 21.6195 148.585 21.9153 147.007 21.9153H142.534H134.837L134.156 25.7066C134.122 25.9048 134.097 26.0796 134.084 26.224C134.07 26.3652 134.063 26.4964 134.07 26.6173C134.084 26.9837 134.201 27.2257 134.411 27.3466C134.621 27.4677 134.999 27.5282 135.54 27.5282H150.856L149.696 34.2233H130.074V34.2267ZM143.704 15.2202C144.203 15.2202 144.572 15.1597 144.805 15.0386C145.039 14.9177 145.221 14.6925 145.345 14.3698C145.472 14.0438 145.556 13.7816 145.593 13.58L146.329 9.3821C146.365 9.18044 146.372 8.91491 146.361 8.59226C146.347 8.2696 146.243 8.04441 146.051 7.92342C145.858 7.80242 145.515 7.74193 145.015 7.74193H139.057C138.352 7.74193 137.876 7.85284 137.64 8.07803C137.398 8.29985 137.195 8.75695 137.071 9.44595L136.035 15.2269H143.704V15.2202Z" fill="white"/>
<path d="M165.866 3.22137C164.607 4.39772 163.739 6.19922 163.313 8.63595L169.717 10.0442C169.887 9.11322 170.145 8.49143 170.486 8.18893C170.826 7.88309 171.497 7.73185 172.492 7.73185H183.366L184.513 1.03672H168.967C166.307 1.03672 167.126 2.04502 165.866 3.22137Z" fill="white"/>
<path d="M156.774 34.1426L162.587 1.03672H171.313C169.368 11.9902 169.014 14.0909 166.769 26.7989L166.715 27.1181L166.588 27.8374L166.456 28.5801L166.322 29.3465L166.182 30.1363C165.434 34.361 166.243 29.9178 165.496 34.1426H156.774Z" fill="white"/>
<path d="M84.8425 1.04006C86.9593 1.04006 88.4909 1.40641 89.434 2.13574C90.377 2.86509 90.8796 4.0011 90.9415 5.54381C90.9587 5.95049 90.9553 6.36389 90.9312 6.79074C90.9071 7.21759 90.8313 7.69148 90.7385 8.21916L87.4789 26.7752C87.0522 29.2119 86.1849 31.0134 84.9251 32.1898C83.6654 33.3662 81.7036 33.9543 79.0429 33.9543H63.3273L64.4735 27.2593H75.5184C76.5132 27.2593 77.1844 27.108 77.5251 26.8022C77.8658 26.4997 78.124 25.8779 78.2927 24.9469L81.0083 9.98705C81.0427 9.78539 81.0668 9.61062 81.0806 9.46946C81.0943 9.32829 81.1012 9.17368 81.0943 9.01236C81.0772 8.56534 80.9188 8.23933 80.6193 8.03767C80.3198 7.836 79.776 7.73181 78.9844 7.73181H67.8191L69.0029 1.0367H84.8425V1.04006Z" fill="white"/>
<path d="M65.1825 1.03672L57.8204 42.8039H66.5421L73.9077 1.03672H65.1825Z" fill="white"/>
<path d="M117.541 1.04006C119.657 1.04006 121.189 1.40641 122.132 2.13574C123.075 2.86509 123.578 4.0011 123.64 5.54381C123.657 5.95049 123.653 6.36389 123.629 6.79074C123.605 7.21759 123.53 7.69148 123.437 8.21916L120.177 26.7752C119.75 29.2119 118.883 31.0134 117.623 32.1898C116.364 33.3662 114.402 33.9543 111.741 33.9543H96.0255L97.1716 27.2593H108.217C109.211 27.2593 109.882 27.108 110.223 26.8022C110.564 26.4997 110.822 25.8779 110.991 24.9469L113.706 9.98705C113.741 9.78539 113.765 9.61062 113.779 9.46946C113.793 9.32829 113.799 9.17368 113.793 9.01236C113.775 8.56534 113.617 8.23933 113.318 8.03767C113.018 7.836 112.474 7.73181 111.683 7.73181H100.517L101.701 1.0367H117.541V1.04006Z" fill="white"/>
<path d="M90.5185 42.8039L97.8807 1.03672H106.606C104.661 11.9902 104.307 14.0909 102.063 26.7989L102.007 27.1181L101.88 27.8374L101.749 28.5801L101.615 29.3465L101.474 30.1364C100.727 34.361 99.9871 38.5791 99.2402 42.8039H90.5185Z" fill="white"/>
<path d="M194.767 44.1191C193.768 44.1191 192.832 43.7009 192.187 42.9823C190.663 43.7264 188.964 44.1191 187.247 44.1191C181.219 44.1191 176.312 39.3963 176.312 33.5945C176.312 27.7927 181.219 23.0675 187.247 23.0675C193.274 23.0675 198.177 27.8041 198.18 33.6245L197.949 33.6269L198.18 33.6245V33.6269V40.8335C198.18 42.645 196.649 44.1191 194.767 44.1191ZM192.475 41.7808L192.72 42.1366C193.175 42.7998 193.942 43.195 194.765 43.195C196.118 43.195 197.218 42.1344 197.218 40.8335V33.6291C197.218 28.3147 192.743 23.994 187.245 23.994C181.746 23.9916 177.271 28.2987 177.271 33.5945C177.271 38.8903 181.746 43.1972 187.247 43.1972C188.94 43.1972 190.615 42.7791 192.089 41.9888L192.475 41.7808Z" fill="white"/>
<path fill-rule="evenodd" clip-rule="evenodd" d="M186.817 41.7179C191.476 41.8912 195.4 38.3884 195.575 33.8966C195.593 33.5085 195.581 33.1318 195.54 32.7552C195.556 33.2103 195.429 33.6886 195.136 34.0305C194.476 34.8 193.34 34.6151 193.153 33.8226C193.055 33.3906 193.248 32.8661 193.632 32.6189C191.502 32.293 190.898 34.2709 189.784 35.3222C188.584 36.459 186.724 36.0477 186.407 34.6984C186.232 33.9497 186.559 33.0394 187.219 32.5957C186.109 32.3485 185.264 32.6627 184.484 33.416C183.743 34.1253 183.213 35.068 182.315 35.574C181.47 36.057 180.296 36.1032 179.544 35.4215C178.991 34.9202 178.728 34.1161 178.705 33.2681C178.528 37.7644 182.159 41.5423 186.817 41.7179Z" fill="url(#paint0_linear_25_78)"/>
<path fill-rule="evenodd" clip-rule="evenodd" d="M186.381 30.1858C190.648 30.1582 190.06 25.1372 186.328 25.4792C182.188 25.8605 178.871 29.1507 178.707 33.2728C178.731 34.1208 178.992 34.9248 179.547 35.4262C180.299 36.1056 181.472 36.0616 182.318 35.5787C182.684 35.3755 182.987 35.0959 183.268 34.7909C182.456 35.7012 181.216 35.2622 181.146 34.093C181.081 32.9516 181.734 31.7986 182.674 31.1239C183.693 30.3869 185.022 30.1904 186.381 30.1858Z" fill="url(#paint1_linear_25_78)"/>
<path fill-rule="evenodd" clip-rule="evenodd" d="M191.769 27.4988C192.556 27.5266 193.168 28.162 193.134 28.9222C193.105 29.6754 192.445 30.267 191.666 30.2369C190.879 30.2023 190.271 29.5669 190.302 28.8136C190.33 28.0534 190.987 27.4688 191.769 27.4988Z" fill="url(#paint2_linear_25_78)"/>
<path fill-rule="evenodd" clip-rule="evenodd" d="M193.891 30.1002C194.356 30.1163 194.72 30.493 194.702 30.9436C194.685 31.3942 194.286 31.7476 193.822 31.7316C193.356 31.7084 192.993 31.3317 193.01 30.8812C193.029 30.4329 193.425 30.084 193.891 30.1002Z" fill="url(#paint3_linear_25_78)"/>
<defs>
<linearGradient id="paint0_linear_25_78" x1="188.139" y1="29.5172" x2="185.743" y2="40.8529" gradientUnits="userSpaceOnUse">
<stop stop-color="#521C89"/>
<stop offset="0.5164" stop-color="#8D1AF1"/>
<stop offset="1" stop-color="#FFA5F6"/>
</linearGradient>
<linearGradient id="paint1_linear_25_78" x1="182.801" y1="35.3699" x2="184.532" y2="27.7629" gradientUnits="userSpaceOnUse">
<stop stop-color="#1837D8"/>
<stop offset="0.5074" stop-color="#00C1FF"/>
<stop offset="1" stop-color="#70E6FF"/>
</linearGradient>
<linearGradient id="paint2_linear_25_78" x1="189.732" y1="36.9472" x2="191.463" y2="29.3402" gradientUnits="userSpaceOnUse">
<stop stop-color="#1837D8"/>
<stop offset="0.5074" stop-color="#00C1FF"/>
<stop offset="1" stop-color="#70E6FF"/>
</linearGradient>
<linearGradient id="paint3_linear_25_78" x1="192.235" y1="37.5163" x2="193.967" y2="29.9092" gradientUnits="userSpaceOnUse">
<stop stop-color="#1837D8"/>
<stop offset="0.5074" stop-color="#00C1FF"/>
<stop offset="1" stop-color="#70E6FF"/>
</linearGradient>
</defs>
</svg>
