<svg width="10" height="9" viewBox="0 0 10 9" fill="none" xmlns="http://www.w3.org/2000/svg">
<path d="M4.49826 3.38538L5.48197 2.80983V1.95977C5.48754 1.83257 5.45901 1.70622 5.39943 1.5944C5.33984 1.48258 5.25144 1.38954 5.14385 1.32532C4.92539 1.19626 3.23178 0.179444 3.06901 0.0776431C2.97658 0.0266736 2.87327 0 2.76824 0C2.66321 0 2.5598 0.0266736 2.46737 0.0776431C2.28852 0.183051 0.539576 1.23995 0.316404 1.37101C0.211674 1.43209 0.126436 1.5227 0.0707898 1.63202C0.0151435 1.74134 -0.00847727 1.86472 0.00270718 1.98741V4.34082C-0.00794039 4.4693 0.0189781 4.59813 0.0800781 4.71094C0.141178 4.82375 0.233707 4.91549 0.345897 4.97449C0.605545 5.1276 2.12969 6.03175 2.35247 6.16321C2.46954 6.23762 2.60461 6.27706 2.74248 6.27706C2.88035 6.27706 3.01552 6.23762 3.13259 6.16321L6.82217 3.98333C6.94147 3.89846 7.08329 3.85295 7.22865 3.85295C7.37402 3.85295 7.51594 3.89846 7.63523 3.98333C7.93528 4.16048 8.35262 4.40377 8.59854 4.54885C8.71547 4.60285 8.8138 4.69146 8.88093 4.80321C8.94805 4.91496 8.98087 5.04469 8.97505 5.17567C8.97505 5.48749 8.97812 6.03698 8.97812 6.38807C8.99926 6.51898 8.97947 6.65339 8.92143 6.77208C8.86339 6.89076 8.77008 6.98767 8.65494 7.04899C8.40784 7.19488 7.81173 7.56681 7.59837 7.69626C7.49527 7.75813 7.3779 7.79073 7.25834 7.79073C7.13878 7.79073 7.02131 7.75813 6.91821 7.69626C6.70485 7.57362 6.03846 7.16839 5.84823 7.05256C5.73916 6.98781 5.6499 6.8933 5.59046 6.77961C5.53102 6.66592 5.50379 6.53755 5.51175 6.40891V5.62896L4.52182 6.21493V6.97081C4.49628 7.11932 4.52123 7.2723 4.59258 7.40428C4.66394 7.53626 4.77741 7.6393 4.91404 7.69626C5.27292 7.90788 6.64918 8.71547 6.91706 8.88821C7.01618 8.9609 7.13509 9 7.25709 9C7.3791 9 7.498 8.9609 7.59712 8.88821C7.80735 8.76396 9.38568 7.82649 9.65042 7.67219C9.77362 7.60036 9.87228 7.49163 9.93309 7.36069C9.9939 7.22974 10.0139 7.08293 9.99045 6.93999C9.99045 6.56805 9.99715 4.95646 9.99715 4.60697C9.99919 4.47108 9.96291 4.33744 9.89259 4.22208C9.82227 4.10673 9.72089 4.01452 9.60063 3.95647C9.39393 3.83383 7.82742 2.9008 7.61091 2.77456C7.50465 2.70446 7.38089 2.66717 7.25441 2.66717C7.12794 2.66717 7.00408 2.70446 6.89782 2.77456C6.64797 2.93487 3.37812 4.87951 3.13259 5.02259C3.01637 5.09935 2.88087 5.1402 2.74248 5.1402C2.60409 5.1402 2.46869 5.09935 2.35247 5.02259C2.07595 4.85225 1.51581 4.50477 1.30911 4.37532C1.20655 4.30805 1.12384 4.21354 1.06981 4.10193C1.01578 3.99031 0.992483 3.86576 1.0024 3.74165V2.55973C0.99041 2.42496 1.01876 2.28966 1.0836 2.17166C1.14845 2.05366 1.24675 1.95855 1.3656 1.89886C1.63192 1.74415 2.17912 1.41188 2.40896 1.27561C2.51105 1.20741 2.63037 1.17111 2.75234 1.17111C2.87431 1.17111 2.99363 1.20741 3.09572 1.27561C3.3189 1.41869 3.8589 1.75658 4.11227 1.90928C4.23693 1.96327 4.34161 2.05644 4.41093 2.17528C4.48026 2.29412 4.5107 2.43242 4.49788 2.57015L4.49826 3.38538Z" fill="white"/>
</svg>
