<svg width="20" height="20" viewBox="0 0 20 20" fill="none" xmlns="http://www.w3.org/2000/svg">
<path d="M10 20C15.5228 20 20 15.5228 20 10C20 4.47715 15.5228 0 10 0C4.47715 0 0 4.47715 0 10C0 15.5228 4.47715 20 10 20Z" fill="#4B545F"/>
<path d="M6.66732 9.16667C7.12756 9.16667 7.50065 8.79357 7.50065 8.33333C7.50065 7.8731 7.12756 7.5 6.66732 7.5C6.20708 7.5 5.83398 7.8731 5.83398 8.33333C5.83398 8.79357 6.20708 9.16667 6.66732 9.16667Z" fill="#07080A"/>
<path d="M13.3333 9.16667C13.7936 9.16667 14.1667 8.79357 14.1667 8.33333C14.1667 7.8731 13.7936 7.5 13.3333 7.5C12.8731 7.5 12.5 7.8731 12.5 8.33333C12.5 8.79357 12.8731 9.16667 13.3333 9.16667Z" fill="#07080A"/>
<path d="M13.7507 12.5H6.25065C6.02053 12.5 5.83398 12.6865 5.83398 12.9167C5.83398 13.1468 6.02053 13.3333 6.25065 13.3333H13.7507C13.9808 13.3333 14.1673 13.1468 14.1673 12.9167C14.1673 12.6865 13.9808 12.5 13.7507 12.5Z" fill="#07080A"/>
</svg>
