<svg width="20" height="20" viewBox="0 0 20 20" fill="none" xmlns="http://www.w3.org/2000/svg">
<ellipse cx="10" cy="9.64349" rx="10" ry="9.64349" fill="#F5AC37"/>
<path fill-rule="evenodd" clip-rule="evenodd" d="M5.22906 4.28648V7.78709H3.66406V9.02147H5.22906V10.3185H3.66406V11.5626H5.22906V15.0101H9.25906C10.1891 15.0101 11.7291 14.9571 12.9641 14.2194C14.1991 13.4816 14.8841 12.58 15.2691 11.6445C15.2691 11.5457 15.3934 11.5517 15.5367 11.5587C15.5751 11.5606 15.6149 11.5626 15.6541 11.5626H16.7241V10.3378H15.7541C15.6541 10.3378 15.6041 10.2848 15.6291 10.1739C15.6541 10.063 15.6641 9.30596 15.6291 9.10344C15.6041 9.03112 15.6741 8.98772 15.7541 8.99736C15.821 9.00543 16.3675 9 16.5676 8.99801C16.6067 8.99762 16.6325 8.99736 16.6391 8.99736C16.6791 8.99736 16.7241 8.99736 16.7241 8.88646V7.76781H15.5191C15.4241 7.76781 15.2941 7.76781 15.2291 7.51225C15.1641 7.2567 14.6841 6.30681 13.6991 5.52568C12.7141 4.74455 11.3291 4.34916 10.4441 4.28648C9.73606 4.23633 6.6724 4.26558 5.22906 4.28648ZM6.48438 7.78726V5.42943C7.43605 5.423 9.48539 5.41304 10.0694 5.42461C10.7994 5.43907 11.6144 5.5789 12.5394 6.18162C13.4644 6.78434 14.0144 7.78726 13.8844 7.78726H6.48438ZM6.48438 10.3139V9.00234C8.99105 8.99752 14.0274 8.98788 14.1194 8.98788C14.2344 8.98788 14.2894 9.03609 14.2894 9.08431C14.3414 9.38133 14.3111 10.0278 14.2894 10.3139H6.48438ZM6.48438 11.5772V13.8868C7.58605 13.8852 9.84839 13.8829 10.0844 13.8868C10.3794 13.8916 11.8294 13.7325 12.7044 13.0574C13.4044 12.5174 13.8094 11.8488 13.9244 11.582L6.48438 11.5772Z" fill="white"/>
</svg>
