<svg width="1528" height="350" viewBox="0 0 1528 350" fill="none" xmlns="http://www.w3.org/2000/svg">
<g opacity="0.5">
<mask id="path-1-inside-1_25_978" fill="white">
<path fill-rule="evenodd" clip-rule="evenodd" d="M270.446 275.253C256.003 275.253 245.441 272.8 238.876 267.922C232.311 263.044 228.8 255.379 228.372 244.954C228.173 240.244 228.686 233.665 230.17 225.275L260.97 49.9775C263.995 32.8073 269.876 20.1805 278.325 12.1251C286.774 4.06956 300.303 0 318.915 0H437.289C452.446 0 463.236 2.45288 469.63 7.33078C476.024 12.2086 479.448 19.8739 479.877 30.2987C480.076 35.0094 479.563 41.6154 478.079 49.9775L447.28 225.275C444.282 242.417 438.373 255.073 429.953 263.128C421.503 271.183 407.745 275.253 388.82 275.253H270.446ZM402.008 69.6842C402.578 66.3115 402.835 64.3046 402.807 63.6356C402.607 58.2561 397.783 55.5523 388.534 55.5523H345.603C340.123 55.5523 336.242 56.4721 334.072 58.3396C331.903 60.1794 330.618 63.998 329.619 69.6842L305.898 206.098C305.805 206.657 305.702 207.184 305.605 207.679C305.465 208.395 305.338 209.046 305.27 209.639C305.127 210.641 305.099 211.673 305.127 212.676C305.328 217.387 309.209 219.756 316.802 219.756H359.705C365.898 219.756 370.352 218.753 373.035 216.718C375.718 214.711 377.431 211.171 378.287 206.126L402.008 69.6842ZM50.6699 275.772C50.6699 275.766 50.6666 275.762 50.6618 275.759C50.6609 275.759 50.6599 275.759 50.6588 275.758L50.6561 275.758C33.1084 275.757 20.4108 272.719 12.5916 266.671C4.77049 260.622 0.603004 251.201 0.0892046 238.407C-0.0535174 235.035 -0.024973 231.606 0.174837 228.066C0.374649 224.527 1.00263 220.596 1.77333 216.22L28.8049 62.3292C32.3444 42.1208 39.5376 27.1805 49.9849 17.4247C60.4322 7.66892 76.7024 2.79102 98.7672 2.79102H208.943C219.479 2.79102 227.477 12.2754 225.7 22.6596L222.015 44.184C220.617 52.3472 213.541 58.3154 205.259 58.3154H127.997C119.748 58.3154 114.181 59.5697 111.355 62.1062C108.529 64.6149 106.389 69.7715 104.99 77.4925L82.4683 201.559C82.1829 203.23 81.9831 204.68 81.8689 205.851C81.7548 207.021 81.6977 208.303 81.7548 209.642C81.8975 213.349 83.2105 216.053 85.6939 217.725C88.1773 219.397 92.6873 220.261 99.2525 220.261H171.58C182.153 220.261 190.162 229.81 188.321 240.221L184.514 261.746C183.078 269.866 176.021 275.785 167.774 275.785H50.6835C50.6778 275.785 50.673 275.782 50.6709 275.777C50.6702 275.775 50.6699 275.774 50.6699 275.772ZM1078.72 278.044C1078.73 278.044 1078.74 278.038 1078.74 278.03C1078.74 278.022 1078.74 278.016 1078.75 278.016H1227.16C1235.43 278.016 1242.5 272.066 1243.91 263.919L1247.64 242.395C1249.44 232 1241.44 222.492 1230.89 222.492H1124.07C1119.59 222.492 1116.45 221.99 1114.7 220.986C1112.96 219.983 1111.99 217.976 1111.88 214.937C1111.82 213.935 1111.88 212.847 1111.99 211.676C1112.11 210.478 1112.31 209.029 1112.59 207.384L1115.73 189.935C1117.18 181.836 1124.23 175.942 1132.46 175.942H1182.07H1219.17C1232.25 175.942 1242.61 173.489 1250.21 168.612C1257.8 163.733 1263.5 156.403 1267.3 146.647C1269.67 140.598 1271.41 134.355 1272.52 127.971L1278.78 92.1541L1286.06 50.7616C1287.17 44.3786 1287.6 38.1348 1287.37 32.0863C1286.97 22.3305 1283.83 14.9997 1277.95 10.1218C1272.07 5.24391 1262.6 2.79102 1249.49 2.79102H1127.23C1108.28 2.79102 1094.58 6.8327 1086.13 14.9161C1077.65 22.9715 1071.8 35.5983 1068.78 52.7685L1037.98 228.066C1036.49 236.456 1035.98 243.034 1036.18 247.744C1036.58 258.169 1040.09 265.835 1046.65 270.712C1053.22 275.589 1063.92 278.042 1078.72 278.044ZM1191.8 120.418L1191.8 120.419C1191.8 120.419 1191.79 120.42 1191.79 120.42C1191.79 120.421 1191.79 120.422 1191.79 120.423C1191.78 120.428 1191.77 120.436 1191.77 120.446C1191.77 120.461 1191.76 120.474 1191.75 120.474H1148.49C1137.9 120.474 1129.89 110.899 1131.76 100.476L1136.77 72.5309C1137.8 66.8168 1139.48 63.026 1141.48 61.1864C1143.44 59.3189 1147.39 58.399 1153.24 58.399H1202.64C1206.79 58.399 1209.64 58.9007 1211.24 59.9042C1212.84 60.9076 1213.7 62.7751 1213.81 65.451C1213.9 68.1269 1213.84 70.329 1213.55 72.0014L1207.44 106.816C1207.13 108.488 1206.44 110.662 1205.39 113.366C1204.36 116.042 1202.85 117.91 1200.91 118.912C1198.98 119.914 1195.93 120.416 1191.8 120.418L1191.8 120.418ZM1400.66 116.52L1400.63 116.675L1400.59 116.905C1396.11 142.414 1391.02 171.391 1383.06 216.444L1382.61 219.091L1381.56 225.056L1380.47 231.216L1379.36 237.572L1378.19 244.122C1375.09 261.64 1375.22 261.187 1375.34 260.734C1375.42 260.476 1375.49 260.218 1374.96 263.292C1373.57 271.42 1366.49 277.347 1358.24 277.347H1320.42C1309.85 277.347 1301.84 267.813 1303.67 257.407L1345.91 16.8511C1347.34 8.72085 1354.4 2.79102 1362.65 2.79102H1400.46C1400.54 2.79102 1400.63 2.79166 1400.71 2.79294C1400.9 2.79166 1401.1 2.79102 1401.29 2.79102H1510.05C1520.59 2.79102 1528.59 12.2763 1526.81 22.6609L1523.12 44.1853C1521.72 52.3479 1514.65 58.3154 1506.37 58.3154H1430.52C1422.27 58.3154 1416.7 59.5697 1413.88 62.1061C1413.13 62.778 1412.37 63.4674 1411.61 64.1598L1411.61 64.1608L1411.61 64.1633C1410.27 65.3763 1409.37 66.9946 1409.06 68.7682C1406.2 84.9816 1403.66 99.4325 1400.91 115.092L1400.85 115.448L1400.66 116.52ZM703.621 2.80496C703.621 2.81266 703.627 2.81891 703.635 2.81891C721.183 2.82053 733.88 5.85873 741.699 11.9057C749.521 17.9544 753.688 27.3756 754.202 40.1697C754.345 43.5424 754.316 46.9709 754.117 50.5108C753.916 54.0508 753.288 57.981 752.519 62.3571L725.486 216.247C721.947 236.456 714.754 251.396 704.307 261.152C693.859 270.908 677.589 275.786 655.524 275.786H573.185C568.332 275.786 564.179 279.27 563.337 284.049L554.329 335.13C552.896 343.254 545.837 349.178 537.587 349.178H499.778C489.209 349.178 481.202 339.635 483.037 329.227L538.1 16.84C539.532 8.71486 546.592 2.79102 554.842 2.79102H586.517H592.676H703.607C703.615 2.79102 703.621 2.79726 703.621 2.80496ZM601.687 66.5787C602.53 61.7996 606.682 58.3154 611.535 58.3154H655.039C661.604 58.3154 666.114 59.1795 668.597 60.8519C671.081 62.5244 672.395 65.2281 672.536 68.9353C672.594 70.2732 672.536 71.5554 672.423 72.7262C672.308 73.8969 672.109 75.3463 671.823 77.0187L649.302 201.085C647.903 208.806 645.762 213.963 642.936 216.471C640.11 219.007 634.544 220.262 626.294 220.262H586.503C580.286 220.262 575.575 214.648 576.655 208.525L601.687 66.5787ZM974.796 2.80496C974.796 2.81266 974.802 2.81891 974.81 2.81891C992.357 2.82053 1005.05 5.85873 1012.87 11.9057C1020.7 17.9544 1024.86 27.3756 1025.38 40.1697C1025.52 43.5424 1025.49 46.9709 1025.29 50.5108C1025.09 54.0508 1024.46 57.981 1023.69 62.3571L996.661 216.247C993.121 236.456 985.928 251.396 975.481 261.152C965.033 270.908 948.763 275.786 926.699 275.786H844.355C839.502 275.786 835.349 279.271 834.507 284.051C833.762 288.281 833.017 292.511 832.272 296.741C830.018 309.538 827.765 322.335 825.505 335.137C824.072 343.258 817.014 349.178 808.767 349.178H770.953C760.383 349.178 752.376 339.635 754.211 329.227L809.274 16.84C810.706 8.71486 817.766 2.79102 826.016 2.79102H857.692H863.826H974.782C974.79 2.79102 974.796 2.79726 974.796 2.80496ZM872.819 66.5781C873.661 61.7998 877.814 58.3154 882.666 58.3154H926.214C932.779 58.3154 937.289 59.1795 939.772 60.8519C942.255 62.5244 943.568 65.2281 943.711 68.9353C943.768 70.2732 943.711 71.5554 943.597 72.7262C943.482 73.8969 943.283 75.3463 942.997 77.0187L920.476 201.085C919.077 208.806 916.936 213.963 914.11 216.471C911.284 219.007 905.718 220.262 897.469 220.262H846.957C846.337 220.262 845.867 219.701 845.975 219.091L846.432 216.443C854.359 171.553 859.443 142.622 863.914 117.18C866.933 100.002 869.672 84.4143 872.819 66.5781Z"/>
</mask>
<path fill-rule="evenodd" clip-rule="evenodd" d="M270.446 275.253C256.003 275.253 245.441 272.8 238.876 267.922C232.311 263.044 228.8 255.379 228.372 244.954C228.173 240.244 228.686 233.665 230.17 225.275L260.97 49.9775C263.995 32.8073 269.876 20.1805 278.325 12.1251C286.774 4.06956 300.303 0 318.915 0H437.289C452.446 0 463.236 2.45288 469.63 7.33078C476.024 12.2086 479.448 19.8739 479.877 30.2987C480.076 35.0094 479.563 41.6154 478.079 49.9775L447.28 225.275C444.282 242.417 438.373 255.073 429.953 263.128C421.503 271.183 407.745 275.253 388.82 275.253H270.446ZM402.008 69.6842C402.578 66.3115 402.835 64.3046 402.807 63.6356C402.607 58.2561 397.783 55.5523 388.534 55.5523H345.603C340.123 55.5523 336.242 56.4721 334.072 58.3396C331.903 60.1794 330.618 63.998 329.619 69.6842L305.898 206.098C305.805 206.657 305.702 207.184 305.605 207.679C305.465 208.395 305.338 209.046 305.27 209.639C305.127 210.641 305.099 211.673 305.127 212.676C305.328 217.387 309.209 219.756 316.802 219.756H359.705C365.898 219.756 370.352 218.753 373.035 216.718C375.718 214.711 377.431 211.171 378.287 206.126L402.008 69.6842ZM50.6699 275.772C50.6699 275.766 50.6666 275.762 50.6618 275.759C50.6609 275.759 50.6599 275.759 50.6588 275.758L50.6561 275.758C33.1084 275.757 20.4108 272.719 12.5916 266.671C4.77049 260.622 0.603004 251.201 0.0892046 238.407C-0.0535174 235.035 -0.024973 231.606 0.174837 228.066C0.374649 224.527 1.00263 220.596 1.77333 216.22L28.8049 62.3292C32.3444 42.1208 39.5376 27.1805 49.9849 17.4247C60.4322 7.66892 76.7024 2.79102 98.7672 2.79102H208.943C219.479 2.79102 227.477 12.2754 225.7 22.6596L222.015 44.184C220.617 52.3472 213.541 58.3154 205.259 58.3154H127.997C119.748 58.3154 114.181 59.5697 111.355 62.1062C108.529 64.6149 106.389 69.7715 104.99 77.4925L82.4683 201.559C82.1829 203.23 81.9831 204.68 81.8689 205.851C81.7548 207.021 81.6977 208.303 81.7548 209.642C81.8975 213.349 83.2105 216.053 85.6939 217.725C88.1773 219.397 92.6873 220.261 99.2525 220.261H171.58C182.153 220.261 190.162 229.81 188.321 240.221L184.514 261.746C183.078 269.866 176.021 275.785 167.774 275.785H50.6835C50.6778 275.785 50.673 275.782 50.6709 275.777C50.6702 275.775 50.6699 275.774 50.6699 275.772ZM1078.72 278.044C1078.73 278.044 1078.74 278.038 1078.74 278.03C1078.74 278.022 1078.74 278.016 1078.75 278.016H1227.16C1235.43 278.016 1242.5 272.066 1243.91 263.919L1247.64 242.395C1249.44 232 1241.44 222.492 1230.89 222.492H1124.07C1119.59 222.492 1116.45 221.99 1114.7 220.986C1112.96 219.983 1111.99 217.976 1111.88 214.937C1111.82 213.935 1111.88 212.847 1111.99 211.676C1112.11 210.478 1112.31 209.029 1112.59 207.384L1115.73 189.935C1117.18 181.836 1124.23 175.942 1132.46 175.942H1182.07H1219.17C1232.25 175.942 1242.61 173.489 1250.21 168.612C1257.8 163.733 1263.5 156.403 1267.3 146.647C1269.67 140.598 1271.41 134.355 1272.52 127.971L1278.78 92.1541L1286.06 50.7616C1287.17 44.3786 1287.6 38.1348 1287.37 32.0863C1286.97 22.3305 1283.83 14.9997 1277.95 10.1218C1272.07 5.24391 1262.6 2.79102 1249.49 2.79102H1127.23C1108.28 2.79102 1094.58 6.8327 1086.13 14.9161C1077.65 22.9715 1071.8 35.5983 1068.78 52.7685L1037.98 228.066C1036.49 236.456 1035.98 243.034 1036.18 247.744C1036.58 258.169 1040.09 265.835 1046.65 270.712C1053.22 275.589 1063.92 278.042 1078.72 278.044ZM1191.8 120.418L1191.8 120.419C1191.8 120.419 1191.79 120.42 1191.79 120.42C1191.79 120.421 1191.79 120.422 1191.79 120.423C1191.78 120.428 1191.77 120.436 1191.77 120.446C1191.77 120.461 1191.76 120.474 1191.75 120.474H1148.49C1137.9 120.474 1129.89 110.899 1131.76 100.476L1136.77 72.5309C1137.8 66.8168 1139.48 63.026 1141.48 61.1864C1143.44 59.3189 1147.39 58.399 1153.24 58.399H1202.64C1206.79 58.399 1209.64 58.9007 1211.24 59.9042C1212.84 60.9076 1213.7 62.7751 1213.81 65.451C1213.9 68.1269 1213.84 70.329 1213.55 72.0014L1207.44 106.816C1207.13 108.488 1206.44 110.662 1205.39 113.366C1204.36 116.042 1202.85 117.91 1200.91 118.912C1198.98 119.914 1195.93 120.416 1191.8 120.418L1191.8 120.418ZM1400.66 116.52L1400.63 116.675L1400.59 116.905C1396.11 142.414 1391.02 171.391 1383.06 216.444L1382.61 219.091L1381.56 225.056L1380.47 231.216L1379.36 237.572L1378.19 244.122C1375.09 261.64 1375.22 261.187 1375.34 260.734C1375.42 260.476 1375.49 260.218 1374.96 263.292C1373.57 271.42 1366.49 277.347 1358.24 277.347H1320.42C1309.85 277.347 1301.84 267.813 1303.67 257.407L1345.91 16.8511C1347.34 8.72085 1354.4 2.79102 1362.65 2.79102H1400.46C1400.54 2.79102 1400.63 2.79166 1400.71 2.79294C1400.9 2.79166 1401.1 2.79102 1401.29 2.79102H1510.05C1520.59 2.79102 1528.59 12.2763 1526.81 22.6609L1523.12 44.1853C1521.72 52.3479 1514.65 58.3154 1506.37 58.3154H1430.52C1422.27 58.3154 1416.7 59.5697 1413.88 62.1061C1413.13 62.778 1412.37 63.4674 1411.61 64.1598L1411.61 64.1608L1411.61 64.1633C1410.27 65.3763 1409.37 66.9946 1409.06 68.7682C1406.2 84.9816 1403.66 99.4325 1400.91 115.092L1400.85 115.448L1400.66 116.52ZM703.621 2.80496C703.621 2.81266 703.627 2.81891 703.635 2.81891C721.183 2.82053 733.88 5.85873 741.699 11.9057C749.521 17.9544 753.688 27.3756 754.202 40.1697C754.345 43.5424 754.316 46.9709 754.117 50.5108C753.916 54.0508 753.288 57.981 752.519 62.3571L725.486 216.247C721.947 236.456 714.754 251.396 704.307 261.152C693.859 270.908 677.589 275.786 655.524 275.786H573.185C568.332 275.786 564.179 279.27 563.337 284.049L554.329 335.13C552.896 343.254 545.837 349.178 537.587 349.178H499.778C489.209 349.178 481.202 339.635 483.037 329.227L538.1 16.84C539.532 8.71486 546.592 2.79102 554.842 2.79102H586.517H592.676H703.607C703.615 2.79102 703.621 2.79726 703.621 2.80496ZM601.687 66.5787C602.53 61.7996 606.682 58.3154 611.535 58.3154H655.039C661.604 58.3154 666.114 59.1795 668.597 60.8519C671.081 62.5244 672.395 65.2281 672.536 68.9353C672.594 70.2732 672.536 71.5554 672.423 72.7262C672.308 73.8969 672.109 75.3463 671.823 77.0187L649.302 201.085C647.903 208.806 645.762 213.963 642.936 216.471C640.11 219.007 634.544 220.262 626.294 220.262H586.503C580.286 220.262 575.575 214.648 576.655 208.525L601.687 66.5787ZM974.796 2.80496C974.796 2.81266 974.802 2.81891 974.81 2.81891C992.357 2.82053 1005.05 5.85873 1012.87 11.9057C1020.7 17.9544 1024.86 27.3756 1025.38 40.1697C1025.52 43.5424 1025.49 46.9709 1025.29 50.5108C1025.09 54.0508 1024.46 57.981 1023.69 62.3571L996.661 216.247C993.121 236.456 985.928 251.396 975.481 261.152C965.033 270.908 948.763 275.786 926.699 275.786H844.355C839.502 275.786 835.349 279.271 834.507 284.051C833.762 288.281 833.017 292.511 832.272 296.741C830.018 309.538 827.765 322.335 825.505 335.137C824.072 343.258 817.014 349.178 808.767 349.178H770.953C760.383 349.178 752.376 339.635 754.211 329.227L809.274 16.84C810.706 8.71486 817.766 2.79102 826.016 2.79102H857.692H863.826H974.782C974.79 2.79102 974.796 2.79726 974.796 2.80496ZM872.819 66.5781C873.661 61.7998 877.814 58.3154 882.666 58.3154H926.214C932.779 58.3154 937.289 59.1795 939.772 60.8519C942.255 62.5244 943.568 65.2281 943.711 68.9353C943.768 70.2732 943.711 71.5554 943.597 72.7262C943.482 73.8969 943.283 75.3463 942.997 77.0187L920.476 201.085C919.077 208.806 916.936 213.963 914.11 216.471C911.284 219.007 905.718 220.262 897.469 220.262H846.957C846.337 220.262 845.867 219.701 845.975 219.091L846.432 216.443C854.359 171.553 859.443 142.622 863.914 117.18C866.933 100.002 869.672 84.4143 872.819 66.5781Z" fill="#191E24"/>
<path d="M238.876 267.922L238.28 268.725L238.28 268.725L238.876 267.922ZM228.372 244.954L229.371 244.913L229.371 244.912L228.372 244.954ZM230.17 225.275L231.154 225.449L231.155 225.448L230.17 225.275ZM260.97 49.9775L259.985 49.804L259.985 49.8044L260.97 49.9775ZM278.325 12.1251L279.015 12.8488L279.015 12.8488L278.325 12.1251ZM469.63 7.33078L469.023 8.12583V8.12583L469.63 7.33078ZM479.877 30.2987L478.877 30.3398L478.877 30.341L479.877 30.2987ZM478.079 49.9775L477.094 49.8028L477.094 49.8044L478.079 49.9775ZM447.28 225.275L446.295 225.102L446.295 225.103L447.28 225.275ZM429.953 263.128L430.643 263.851L430.644 263.85L429.953 263.128ZM402.807 63.6356L401.808 63.6729L401.808 63.6779L402.807 63.6356ZM402.008 69.6842L402.993 69.8555L402.994 69.8509L402.008 69.6842ZM334.072 58.3396L334.719 59.1024L334.725 59.0975L334.072 58.3396ZM329.619 69.6842L328.634 69.511L328.634 69.5129L329.619 69.6842ZM305.898 206.098L304.913 205.926L304.912 205.933L305.898 206.098ZM305.605 207.679L306.586 207.871L305.605 207.679ZM305.27 209.639L306.26 209.78L306.262 209.766L306.264 209.752L305.27 209.639ZM305.127 212.676L304.128 212.705L304.128 212.712L304.128 212.719L305.127 212.676ZM373.035 216.718L372.436 215.917L372.431 215.921L373.035 216.718ZM378.287 206.126L377.302 205.955L377.302 205.959L378.287 206.126ZM50.6618 275.759L51.08 274.851L51.0693 274.846L50.6618 275.759ZM50.6588 275.758L50.8563 274.778L50.8082 274.768L50.7594 274.763L50.6588 275.758ZM50.6561 275.758L50.7567 274.763L50.7066 274.758H50.6562L50.6561 275.758ZM12.5916 266.671L13.2034 265.88L13.2034 265.88L12.5916 266.671ZM0.0892046 238.407L1.0884 238.367L1.08831 238.365L0.0892046 238.407ZM0.174837 228.066L-0.823573 228.01L0.174837 228.066ZM1.77333 216.22L2.75817 216.393L2.75825 216.393L1.77333 216.22ZM28.8049 62.3292L29.7899 62.5022L29.7899 62.5017L28.8049 62.3292ZM49.9849 17.4247L49.3024 16.6938H49.3024L49.9849 17.4247ZM225.7 22.6596L226.685 22.8283L225.7 22.6596ZM222.015 44.184L223.001 44.3527L222.015 44.184ZM111.355 62.1062L112.019 62.854L112.023 62.8503L111.355 62.1062ZM104.99 77.4925L105.974 77.6711L105.974 77.6708L104.99 77.4925ZM82.4683 201.559L81.4844 201.38L81.4826 201.39L82.4683 201.559ZM81.8689 205.851L82.8642 205.948L82.8642 205.948L81.8689 205.851ZM81.7548 209.642L82.7541 209.604L82.7539 209.599L81.7548 209.642ZM85.6939 217.725L85.1352 218.555L85.1355 218.555L85.6939 217.725ZM188.321 240.221L189.305 240.396L188.321 240.221ZM184.514 261.746L185.499 261.92L184.514 261.746ZM50.6709 275.777L49.7486 276.164L49.7503 276.168L50.6709 275.777ZM1078.72 278.044L1078.72 279.044H1078.72V278.044ZM1243.91 263.919L1244.9 264.09L1243.91 263.919ZM1247.64 242.395L1246.66 242.224L1247.64 242.395ZM1114.7 220.986L1115.2 220.119L1115.2 220.119L1114.7 220.986ZM1111.88 214.937L1112.88 214.9L1112.88 214.89L1112.88 214.881L1111.88 214.937ZM1111.99 211.676L1112.99 211.773L1112.99 211.771L1111.99 211.676ZM1112.59 207.384L1111.61 207.207L1111.61 207.213L1112.59 207.384ZM1115.73 189.935L1114.74 189.758V189.758L1115.73 189.935ZM1250.21 168.612L1250.75 169.453L1250.75 169.453L1250.21 168.612ZM1267.3 146.647L1266.37 146.282L1266.37 146.284L1267.3 146.647ZM1272.52 127.971L1271.54 127.799L1271.54 127.8L1272.52 127.971ZM1278.78 92.1541L1277.8 91.9809L1277.8 91.982L1278.78 92.1541ZM1286.06 50.7616L1287.04 50.9348L1287.04 50.933L1286.06 50.7616ZM1287.37 32.0863L1288.37 32.0488L1288.37 32.0445L1287.37 32.0863ZM1277.95 10.1218L1278.59 9.35261L1278.59 9.35201L1277.95 10.1218ZM1086.13 14.9161L1086.82 15.641L1086.82 15.6387L1086.13 14.9161ZM1068.78 52.7685L1067.79 52.5949V52.5954L1068.78 52.7685ZM1037.98 228.066L1038.96 228.24L1038.96 228.239L1037.98 228.066ZM1036.18 247.744L1037.18 247.706L1037.18 247.702L1036.18 247.744ZM1046.65 270.712L1047.25 269.91L1047.25 269.91L1046.65 270.712ZM1191.8 120.419L1191.64 119.432L1191.62 119.434L1191.61 119.437L1191.8 120.419ZM1191.8 120.418L1191.74 119.42L1191.69 119.424L1191.64 119.431L1191.8 120.418ZM1191.79 120.42L1191.42 119.491L1191.41 119.495L1191.4 119.499L1191.79 120.42ZM1191.79 120.423L1191.24 119.585L1191.24 119.587L1191.79 120.423ZM1131.76 100.476L1132.74 100.652V100.652L1131.76 100.476ZM1136.77 72.5309L1135.78 72.3533L1135.78 72.3546L1136.77 72.5309ZM1141.48 61.1864L1142.16 61.9235L1142.16 61.9171L1142.17 61.9105L1141.48 61.1864ZM1211.24 59.9042L1210.71 60.7511V60.7511L1211.24 59.9042ZM1213.81 65.451L1214.81 65.4171L1214.81 65.4087L1213.81 65.451ZM1213.55 72.0014L1212.56 71.8279L1212.56 71.8286L1213.55 72.0014ZM1207.44 106.816L1208.42 106.996L1208.42 106.988L1207.44 106.816ZM1205.39 113.366L1204.46 113.003L1204.45 113.006L1205.39 113.366ZM1200.91 118.912L1200.45 118.024L1200.45 118.024L1200.91 118.912ZM1191.8 120.418L1191.8 119.418L1191.77 119.418L1191.74 119.42L1191.8 120.418ZM1400.63 116.675L1401.62 116.848V116.847L1400.63 116.675ZM1400.66 116.52L1399.68 116.347L1399.68 116.348L1400.66 116.52ZM1400.59 116.905L1401.58 117.078L1401.58 117.077L1400.59 116.905ZM1383.06 216.444L1382.08 216.27L1382.08 216.275L1383.06 216.444ZM1382.61 219.091L1383.59 219.265L1383.59 219.26L1382.61 219.091ZM1381.56 225.056L1380.57 224.882V224.882L1381.56 225.056ZM1380.47 231.216L1379.48 231.042L1379.48 231.044L1380.47 231.216ZM1379.36 237.572L1380.34 237.747L1380.34 237.744L1379.36 237.572ZM1378.19 244.122L1377.2 243.947L1377.2 243.948L1378.19 244.122ZM1375.34 260.734L1374.38 260.463L1374.38 260.463L1375.34 260.734ZM1374.96 263.292L1373.98 263.124L1374.96 263.292ZM1303.67 257.407L1304.66 257.58L1303.67 257.407ZM1345.91 16.8511L1344.92 16.6782V16.6782L1345.91 16.8511ZM1400.71 2.79294L1400.7 3.79283L1400.71 3.79299L1400.72 3.79292L1400.71 2.79294ZM1526.81 22.6609L1527.79 22.8297V22.8297L1526.81 22.6609ZM1523.12 44.1853L1522.14 44.0165L1523.12 44.1853ZM1413.88 62.1061L1414.55 62.8535L1414.55 62.8499L1413.88 62.1061ZM1411.61 64.1598L1410.94 63.4206L1410.93 63.4291L1410.92 63.4378L1411.61 64.1598ZM1411.61 64.1608L1410.92 63.4388L1410.91 63.4442L1411.61 64.1608ZM1400.91 115.092L1401.9 115.266V115.265L1400.91 115.092ZM1400.85 115.448L1399.86 115.274V115.275L1400.85 115.448ZM703.635 2.81891L703.635 3.81891L703.635 2.81891ZM741.699 11.9057L742.311 11.1147V11.1147L741.699 11.9057ZM754.202 40.1697L753.203 40.2098L753.203 40.212L754.202 40.1697ZM754.117 50.5108L755.115 50.5674V50.5671L754.117 50.5108ZM752.519 62.3571L751.534 62.1839L751.534 62.1841L752.519 62.3571ZM725.486 216.247L724.501 216.074L724.501 216.075L725.486 216.247ZM704.307 261.152L703.624 260.421L704.307 261.152ZM554.329 335.13L553.344 334.956L554.329 335.13ZM483.037 329.227L484.021 329.4H484.021L483.037 329.227ZM538.1 16.84L539.085 17.0136L538.1 16.84ZM668.597 60.8519L668.039 61.6814V61.6814L668.597 60.8519ZM672.536 68.9353L671.537 68.9735L671.537 68.9785L672.536 68.9353ZM672.423 72.7262L673.418 72.8235L673.418 72.8225L672.423 72.7262ZM671.823 77.0187L672.807 77.1973L672.809 77.1871L671.823 77.0187ZM649.302 201.085L648.318 200.906L648.318 200.906L649.302 201.085ZM642.936 216.471L642.272 215.723L642.268 215.727L642.936 216.471ZM974.81 2.81891L974.81 3.81891L974.81 2.81891ZM1012.87 11.9057L1013.49 11.1147L1013.49 11.1146L1012.87 11.9057ZM1025.38 40.1697L1024.38 40.2099V40.2117L1025.38 40.1697ZM1023.69 62.3571L1022.71 62.1836L1022.71 62.1841L1023.69 62.3571ZM996.661 216.247L995.676 216.074L995.676 216.075L996.661 216.247ZM975.481 261.152L974.798 260.421L975.481 261.152ZM832.272 296.741L833.257 296.915L832.272 296.741ZM825.505 335.137L824.521 334.963L825.505 335.137ZM754.211 329.227L753.226 329.053L754.211 329.227ZM809.274 16.84L808.289 16.6664L809.274 16.84ZM939.772 60.8519L940.331 60.0226L940.331 60.0225L939.772 60.8519ZM943.711 68.9353L942.712 68.9738L942.712 68.9776L943.711 68.9353ZM943.597 72.7262L944.592 72.8235V72.8234L943.597 72.7262ZM942.997 77.0187L943.981 77.1973L943.983 77.1871L942.997 77.0187ZM920.476 201.085L919.492 200.906L919.492 200.906L920.476 201.085ZM914.11 216.471L913.446 215.723L913.442 215.727L914.11 216.471ZM846.432 216.443L845.447 216.27L845.446 216.273L846.432 216.443ZM863.914 117.18L864.899 117.353L863.914 117.18ZM872.819 66.5781L871.834 66.4044L872.819 66.5781ZM834.507 284.051L833.522 283.877L834.507 284.051ZM576.655 208.525L577.64 208.699L576.655 208.525ZM601.687 66.5787L600.703 66.4051L601.687 66.5787ZM563.337 284.049L562.352 283.876L563.337 284.049ZM1409.06 68.7682L1408.08 68.5945L1409.06 68.7682ZM238.28 268.725C245.106 273.796 255.934 276.253 270.446 276.253V274.253C256.072 274.253 245.777 271.803 239.472 267.12L238.28 268.725ZM227.373 244.995C227.81 255.632 231.408 263.619 238.28 268.725L239.473 267.12C233.214 262.468 229.791 255.126 229.371 244.913L227.373 244.995ZM229.185 225.101C227.694 233.531 227.169 240.188 227.373 244.997L229.371 244.912C229.176 240.3 229.678 233.799 231.154 225.449L229.185 225.101ZM259.985 49.8044L229.185 225.102L231.155 225.448L261.955 50.1505L259.985 49.8044ZM277.635 11.4013C268.976 19.6571 263.031 32.5148 259.985 49.804L261.955 50.151C264.959 33.0998 270.776 20.7039 279.015 12.8488L277.635 11.4013ZM318.915 -1C300.19 -1 286.353 3.0894 277.635 11.4013L279.015 12.8488C287.195 5.04971 300.417 1 318.915 1V-1ZM437.289 -1H318.915V1H437.289V-1ZM470.236 6.53572C463.571 1.45063 452.499 -1 437.289 -1V1C452.393 1 462.901 3.45513 469.023 8.12583L470.236 6.53572ZM480.876 30.2576C480.439 19.63 476.933 11.6444 470.236 6.53572L469.023 8.12583C475.115 12.7729 478.457 20.1177 478.877 30.3398L480.876 30.2576ZM479.063 50.1522C480.554 41.749 481.079 35.0652 480.876 30.2564L478.877 30.341C479.073 34.9535 478.571 41.4818 477.094 49.8028L479.063 50.1522ZM448.265 225.448L479.064 50.1505L477.094 49.8044L446.295 225.102L448.265 225.448ZM430.644 263.85C439.273 255.596 445.245 242.71 448.265 225.447L446.295 225.103C443.318 242.124 437.473 254.55 429.262 262.405L430.644 263.85ZM388.82 276.253C407.851 276.253 421.921 272.166 430.643 263.851L429.263 262.404C421.085 270.2 407.638 274.253 388.82 274.253V276.253ZM270.446 276.253H388.82V274.253H270.446V276.253ZM401.808 63.6779C401.818 63.912 401.774 64.496 401.64 65.516C401.511 66.5058 401.306 67.8372 401.022 69.5175L402.994 69.8509C403.28 68.1585 403.489 66.8002 403.624 65.7761C403.754 64.7822 403.825 64.0282 403.806 63.5933L401.808 63.6779ZM388.534 56.5523C393.091 56.5523 396.405 57.2234 398.572 58.4473C400.666 59.6303 401.721 61.341 401.808 63.6729L403.806 63.5984C403.693 60.5507 402.236 58.2198 399.556 56.7059C396.948 55.2331 393.227 54.5523 388.534 54.5523V56.5523ZM345.603 56.5523H388.534V54.5523H345.603V56.5523ZM334.725 59.0975C336.605 57.4789 340.166 56.5523 345.603 56.5523V54.5523C340.08 54.5523 335.878 55.4654 333.42 57.5818L334.725 59.0975ZM330.604 69.8574C331.099 67.0398 331.657 64.7338 332.342 62.9234C333.03 61.1068 333.816 59.8682 334.719 59.1023L333.426 57.577C332.159 58.6508 331.219 60.2414 330.472 62.2156C329.722 64.196 329.138 66.6424 328.634 69.511L330.604 69.8574ZM306.883 206.269L330.604 69.8555L328.634 69.5129L304.913 205.926L306.883 206.269ZM306.586 207.871C306.683 207.377 306.789 206.837 306.885 206.262L304.912 205.933C304.821 206.477 304.721 206.99 304.624 207.487L306.586 207.871ZM306.264 209.752C306.326 209.206 306.445 208.597 306.586 207.871L304.624 207.487C304.486 208.192 304.35 208.885 304.277 209.525L306.264 209.752ZM306.127 212.648C306.1 211.68 306.128 210.709 306.26 209.78L304.28 209.498C304.127 210.574 304.099 211.665 304.128 212.705L306.127 212.648ZM316.802 218.756C313.08 218.756 310.428 218.17 308.712 217.128C307.066 216.128 306.213 214.671 306.127 212.634L304.128 212.719C304.242 215.393 305.43 217.475 307.674 218.837C309.847 220.157 312.931 220.756 316.802 220.756V218.756ZM359.705 218.756H316.802V220.756H359.705V218.756ZM372.431 215.921C370.017 217.752 365.843 218.756 359.705 218.756V220.756C365.953 220.756 370.686 219.755 373.639 217.515L372.431 215.921ZM377.302 205.959C376.463 210.893 374.821 214.133 372.436 215.917L373.634 217.519C376.614 215.29 378.398 211.448 379.273 206.294L377.302 205.959ZM401.023 69.5129L377.302 205.955L379.273 206.297L402.993 69.8555L401.023 69.5129ZM50.2437 276.668C49.9145 276.516 49.6699 276.179 49.6699 275.772H51.6699C51.6699 275.353 51.4186 275.007 51.08 274.851L50.2437 276.668ZM50.4613 276.739C50.3846 276.723 50.3154 276.7 50.2544 276.673L51.0693 274.846C51.0064 274.818 50.9351 274.794 50.8563 274.778L50.4613 276.739ZM50.5555 276.753L50.5582 276.753L50.7594 274.763L50.7567 274.763L50.5555 276.753ZM11.9798 267.462C20.0649 273.715 33.0387 276.757 50.656 276.758L50.6562 274.758C33.1781 274.757 20.7566 271.722 13.2034 265.88L11.9798 267.462ZM-0.90999 238.448C-0.388091 251.443 3.85985 261.182 11.9799 267.462L13.2034 265.88C5.68113 260.063 1.5941 250.96 1.0884 238.367L-0.90999 238.448ZM-0.823573 228.01C-1.02514 231.581 -1.05408 235.042 -0.909901 238.45L1.08831 238.365C0.947049 235.027 0.975197 231.631 1.17325 228.123L-0.823573 228.01ZM0.788479 216.046C0.0179258 220.422 -0.620069 224.405 -0.823573 228.01L1.17325 228.123C1.36937 224.648 1.98733 220.771 2.75817 216.393L0.788479 216.046ZM27.82 62.1562L0.788406 216.047L2.75825 216.393L29.7899 62.5022L27.82 62.1562ZM49.3024 16.6938C38.6455 26.6454 31.3828 41.8146 27.8199 62.1567L29.7899 62.5017C33.306 42.4269 40.4298 27.7156 50.6674 18.1556L49.3024 16.6938ZM98.7672 1.79102C76.5824 1.79102 60.0135 6.69163 49.3024 16.6938L50.6674 18.1556C60.8508 8.64621 76.8224 3.79102 98.7672 3.79102V1.79102ZM208.943 1.79102H98.7672V3.79102H208.943V1.79102ZM226.685 22.8283C228.568 11.8333 220.098 1.79102 208.943 1.79102V3.79102C218.859 3.79102 226.387 12.7175 224.714 22.4908L226.685 22.8283ZM223.001 44.3527L226.685 22.8283L224.714 22.4908L221.029 44.0153L223.001 44.3527ZM205.259 59.3154C214.028 59.3154 221.521 52.9961 223.001 44.3527L221.029 44.0153C219.714 51.6983 213.053 57.3154 205.259 57.3154V59.3154ZM127.997 59.3154H205.259V57.3154H127.997V59.3154ZM112.023 62.8503C113.261 61.7393 115.176 60.8453 117.864 60.2348C120.542 59.6263 123.916 59.3154 127.997 59.3154V57.3154C123.828 57.3154 120.294 57.6317 117.421 58.2845C114.556 58.9352 112.275 59.9366 110.687 61.362L112.023 62.8503ZM105.974 77.6708C107.368 69.9761 109.465 65.1217 112.019 62.854L110.691 61.3583C107.594 64.108 105.409 69.5669 104.006 77.3143L105.974 77.6708ZM83.4523 201.737L105.974 77.6711L104.006 77.3139L81.4844 201.38L83.4523 201.737ZM82.8642 205.948C82.9754 204.808 83.1715 203.382 83.4541 201.727L81.4826 201.39C81.1944 203.078 80.9908 204.553 80.8737 205.754L82.8642 205.948ZM82.7539 209.599C82.6991 208.315 82.7537 207.081 82.8642 205.948L80.8737 205.754C80.7559 206.961 80.6963 208.291 80.7557 209.685L82.7539 209.599ZM86.2526 216.896C84.0985 215.445 82.8878 213.078 82.7541 209.604L80.7555 209.68C80.9072 213.619 82.3226 216.66 85.1352 218.555L86.2526 216.896ZM99.2525 219.261C92.7052 219.261 88.4664 218.386 86.2523 216.896L85.1355 218.555C87.8881 220.408 92.6695 221.261 99.2525 221.261V219.261ZM171.58 219.261H99.2525V221.261H171.58V219.261ZM189.305 240.396C191.255 229.372 182.775 219.261 171.58 219.261V221.261C181.531 221.261 189.069 230.248 187.336 240.047L189.305 240.396ZM185.499 261.92L189.305 240.396L187.336 240.047L183.53 261.571L185.499 261.92ZM167.774 276.785C176.506 276.785 183.979 270.518 185.499 261.92L183.53 261.571C182.178 269.215 175.536 274.785 167.774 274.785V276.785ZM50.6835 276.785H167.774V274.785H50.6835V276.785ZM49.7503 276.168C49.9045 276.531 50.2646 276.785 50.6835 276.785V274.785C51.091 274.785 51.4415 275.033 51.5915 275.387L49.7503 276.168ZM49.6699 275.772C49.6699 275.91 49.6979 276.043 49.7486 276.164L51.5932 275.391C51.6426 275.508 51.6699 275.638 51.6699 275.772H49.6699ZM1077.74 278.03C1077.74 277.476 1078.19 277.044 1078.72 277.044V279.044C1079.27 279.044 1079.74 278.6 1079.74 278.03H1077.74ZM1078.75 277.016C1078.19 277.016 1077.74 277.471 1077.74 278.03H1079.74C1079.74 278.573 1079.3 279.016 1078.75 279.016V277.016ZM1227.16 277.016H1078.75V279.016H1227.16V277.016ZM1242.92 263.748C1241.6 271.416 1234.94 277.016 1227.16 277.016V279.016C1235.92 279.016 1243.4 272.716 1244.9 264.09L1242.92 263.748ZM1246.66 242.224L1242.92 263.748L1244.9 264.09L1248.63 242.565L1246.66 242.224ZM1230.89 223.492C1240.82 223.492 1248.35 232.441 1246.66 242.224L1248.63 242.565C1250.53 231.559 1242.06 221.492 1230.89 221.492V223.492ZM1124.07 223.492H1230.89V221.492H1124.07V223.492ZM1114.2 221.852C1116.2 223 1119.58 223.492 1124.07 223.492V221.492C1119.59 221.492 1116.69 220.979 1115.2 220.119L1114.2 221.852ZM1110.88 214.975C1111 218.188 1112.04 220.607 1114.21 221.852L1115.2 220.119C1113.88 219.359 1112.98 217.765 1112.88 214.9L1110.88 214.975ZM1111 211.579C1110.88 212.772 1110.82 213.918 1110.88 214.994L1112.88 214.881C1112.82 213.952 1112.87 212.921 1112.99 211.773L1111 211.579ZM1111.61 207.213C1111.32 208.876 1111.11 210.351 1111 211.581L1112.99 211.771C1113.1 210.604 1113.29 209.181 1113.58 207.555L1111.61 207.213ZM1114.74 189.758L1111.61 207.207L1113.58 207.561L1116.71 190.112L1114.74 189.758ZM1132.46 174.942C1123.75 174.942 1116.29 181.183 1114.74 189.758L1116.71 190.112C1118.08 182.489 1124.71 176.942 1132.46 176.942V174.942ZM1182.07 174.942H1132.46V176.942H1182.07V174.942ZM1219.17 174.942H1182.07V176.942H1219.17V174.942ZM1249.67 167.77C1242.29 172.508 1232.14 174.942 1219.17 174.942V176.942C1232.36 176.942 1242.93 174.471 1250.75 169.453L1249.67 167.77ZM1266.37 146.284C1262.63 155.876 1257.05 163.024 1249.67 167.771L1250.75 169.453C1258.55 164.443 1264.37 156.93 1268.23 147.009L1266.37 146.284ZM1271.54 127.8C1270.44 134.117 1268.71 140.296 1266.37 146.282L1268.23 147.011C1270.62 140.901 1272.39 134.592 1273.51 128.143L1271.54 127.8ZM1277.8 91.982L1271.54 127.799L1273.51 128.143L1279.77 92.3261L1277.8 91.982ZM1285.07 50.5885L1277.8 91.9809L1279.77 92.3272L1287.04 50.9348L1285.07 50.5885ZM1286.37 32.1237C1286.6 38.099 1286.17 44.2727 1285.07 50.5902L1287.04 50.933C1288.17 44.4845 1288.6 38.1706 1288.37 32.0488L1286.37 32.1237ZM1277.32 10.891C1282.91 15.5404 1285.97 22.5701 1286.37 32.128L1288.37 32.0445C1287.96 22.0908 1284.74 14.459 1278.59 9.35261L1277.32 10.891ZM1249.49 3.79102C1262.51 3.79102 1271.7 6.23616 1277.32 10.8916L1278.59 9.35201C1272.44 4.25165 1262.68 1.79102 1249.49 1.79102V3.79102ZM1127.23 3.79102H1249.49V1.79102H1127.23V3.79102ZM1086.82 15.6387C1095 7.81621 1108.39 3.79102 1127.23 3.79102V1.79102C1108.18 1.79102 1094.16 5.84919 1085.44 14.1935L1086.82 15.6387ZM1069.76 52.9421C1072.77 35.8892 1078.55 23.495 1086.82 15.641L1085.44 14.1911C1076.75 22.4481 1070.84 35.3074 1067.79 52.5949L1069.76 52.9421ZM1038.96 228.239L1069.76 52.9415L1067.79 52.5954L1036.99 227.893L1038.96 228.239ZM1037.18 247.702C1036.98 243.09 1037.48 236.59 1038.96 228.24L1036.99 227.892C1035.5 236.322 1034.97 242.978 1035.18 247.787L1037.18 247.702ZM1047.25 269.91C1040.99 265.26 1037.57 257.917 1037.18 247.706L1035.18 247.783C1035.59 258.422 1039.19 266.41 1046.06 271.515L1047.25 269.91ZM1078.72 277.044C1063.98 277.042 1053.55 274.591 1047.25 269.91L1046.06 271.515C1052.88 276.588 1063.85 279.042 1078.72 279.044L1078.72 277.044ZM1191.96 121.406L1191.96 121.406L1191.64 119.431L1191.64 119.432L1191.96 121.406ZM1192.16 121.35C1192.11 121.369 1192.05 121.388 1191.99 121.401L1191.61 119.437C1191.54 119.451 1191.47 119.471 1191.42 119.491L1192.16 121.35ZM1192.33 121.261C1192.3 121.284 1192.25 121.314 1192.18 121.341L1191.4 119.499C1191.33 119.528 1191.28 119.559 1191.24 119.585L1192.33 121.261ZM1192.77 120.446C1192.77 120.795 1192.59 121.091 1192.34 121.259L1191.24 119.587C1190.97 119.764 1190.77 120.078 1190.77 120.446H1192.77ZM1191.75 121.474C1192.31 121.474 1192.77 121.014 1192.77 120.446H1190.77C1190.77 119.909 1191.21 119.474 1191.75 119.474V121.474ZM1148.49 121.474H1191.75V119.474H1148.49V121.474ZM1130.78 100.3C1128.8 111.335 1137.28 121.474 1148.49 121.474V119.474C1138.53 119.474 1130.99 110.462 1132.74 100.652L1130.78 100.3ZM1135.78 72.3546L1130.78 100.3L1132.74 100.652L1137.75 72.7073L1135.78 72.3546ZM1140.81 60.4493C1138.55 62.5202 1136.82 66.59 1135.78 72.3533L1137.75 72.7086C1138.77 67.0437 1140.4 63.5318 1142.16 61.9235L1140.81 60.4493ZM1153.24 57.399C1150.27 57.399 1147.73 57.6319 1145.67 58.1192C1143.62 58.6044 1141.95 59.3596 1140.79 60.4623L1142.17 61.9105C1142.97 61.1457 1144.26 60.5072 1146.13 60.0656C1147.99 59.6261 1150.36 59.399 1153.24 59.399V57.399ZM1202.64 57.399H1153.24V59.399H1202.64V57.399ZM1211.77 59.0573C1209.91 57.8898 1206.81 57.399 1202.64 57.399V59.399C1206.78 59.399 1209.37 59.9116 1210.71 60.7511L1211.77 59.0573ZM1214.81 65.4087C1214.69 62.5552 1213.75 60.3031 1211.77 59.0573L1210.71 60.7511C1211.92 61.5121 1212.7 62.9951 1212.81 65.4933L1214.81 65.4087ZM1214.53 72.1749C1214.85 70.3965 1214.9 68.1095 1214.81 65.4171L1212.81 65.4849C1212.9 68.1443 1212.84 70.2615 1212.56 71.8279L1214.53 72.1749ZM1208.42 106.988L1214.53 72.1742L1212.56 71.8286L1206.45 106.643L1208.42 106.988ZM1206.32 113.729C1207.38 111.007 1208.1 108.762 1208.42 106.996L1206.46 106.635C1206.17 108.214 1205.5 110.318 1204.46 113.003L1206.32 113.729ZM1201.37 119.801C1203.59 118.654 1205.23 116.556 1206.32 113.726L1204.45 113.006C1203.48 115.527 1202.11 117.165 1200.45 118.024L1201.37 119.801ZM1191.8 121.418C1195.97 121.416 1199.22 120.916 1201.37 119.8L1200.45 118.024C1198.74 118.912 1195.89 119.416 1191.8 119.418L1191.8 121.418ZM1191.86 121.417L1191.87 121.416L1191.74 119.42L1191.74 119.42L1191.86 121.417ZM1401.62 116.847L1401.65 116.692L1399.68 116.348L1399.65 116.503L1401.62 116.847ZM1401.58 117.077L1401.62 116.848L1399.65 116.502L1399.61 116.732L1401.58 117.077ZM1384.05 216.617C1392 171.564 1397.1 142.587 1401.58 117.078L1399.61 116.732C1395.13 142.24 1390.03 171.217 1382.08 216.27L1384.05 216.617ZM1383.59 219.26L1384.05 216.612L1382.08 216.275L1381.62 218.922L1383.59 219.26ZM1382.54 225.23L1383.59 219.265L1381.62 218.917L1380.57 224.882L1382.54 225.23ZM1381.45 231.39L1382.54 225.23L1380.57 224.882L1379.48 231.042L1381.45 231.39ZM1380.34 237.744L1381.45 231.388L1379.48 231.044L1378.37 237.4L1380.34 237.744ZM1379.17 244.298L1380.34 237.747L1378.37 237.396L1377.2 243.947L1379.17 244.298ZM1374.38 260.463C1374.37 260.494 1374.37 260.513 1374.36 260.527C1374.35 260.561 1374.36 260.519 1374.39 260.461C1374.4 260.444 1374.42 260.392 1374.46 260.329C1374.48 260.298 1374.52 260.239 1374.59 260.174C1374.64 260.121 1374.78 259.987 1375.02 259.918C1375.31 259.832 1375.64 259.885 1375.9 260.081C1376.1 260.235 1376.19 260.423 1376.22 260.495C1376.28 260.646 1376.29 260.776 1376.29 260.792C1376.3 260.893 1376.29 260.967 1376.29 260.903C1376.31 260.77 1376.37 260.355 1376.54 259.333C1376.88 257.318 1377.62 253.056 1379.17 244.296L1377.2 243.948C1375.65 252.706 1374.91 256.977 1374.57 259.001C1374.4 260 1374.33 260.481 1374.3 260.683C1374.3 260.703 1374.29 260.826 1374.3 260.949C1374.3 260.971 1374.31 261.104 1374.37 261.258C1374.4 261.332 1374.49 261.52 1374.69 261.675C1374.95 261.871 1375.28 261.925 1375.58 261.838C1375.81 261.769 1375.96 261.634 1376.01 261.58C1376.07 261.515 1376.12 261.454 1376.14 261.422C1376.18 261.356 1376.21 261.299 1376.21 261.277C1376.25 261.198 1376.27 261.116 1376.28 261.102C1376.29 261.068 1376.3 261.031 1376.31 261.005L1374.38 260.463ZM1375.95 263.461C1376.21 261.93 1376.33 261.205 1376.37 260.896C1376.38 260.824 1376.39 260.743 1376.39 260.674C1376.39 260.654 1376.39 260.624 1376.39 260.588C1376.39 260.565 1376.39 260.484 1376.37 260.386C1376.36 260.341 1376.34 260.227 1376.26 260.1C1376.2 259.981 1376 259.696 1375.6 259.612C1375.19 259.527 1374.9 259.71 1374.79 259.794C1374.67 259.884 1374.6 259.978 1374.57 260.016C1374.51 260.098 1374.48 260.172 1374.47 260.192C1374.46 260.224 1374.45 260.251 1374.44 260.267C1374.43 260.3 1374.42 260.331 1374.41 260.35C1374.4 260.39 1374.39 260.435 1374.38 260.463L1376.31 261.005C1376.32 260.969 1376.32 260.95 1376.33 260.938C1376.33 260.931 1376.33 260.939 1376.32 260.955C1376.32 260.962 1376.31 260.982 1376.3 261.007C1376.29 261.021 1376.26 261.09 1376.21 261.17C1376.18 261.206 1376.11 261.299 1375.99 261.387C1375.89 261.471 1375.59 261.654 1375.19 261.569C1374.78 261.485 1374.59 261.201 1374.52 261.083C1374.45 260.956 1374.42 260.845 1374.42 260.802C1374.4 260.707 1374.39 260.633 1374.39 260.618C1374.39 260.591 1374.4 260.572 1374.4 260.565C1374.4 260.548 1374.4 260.559 1374.39 260.631C1374.35 260.896 1374.24 261.58 1373.98 263.124L1375.95 263.461ZM1358.24 278.347C1366.97 278.347 1374.48 272.073 1375.95 263.461L1373.98 263.124C1372.67 270.767 1366.01 276.347 1358.24 276.347V278.347ZM1320.42 278.347H1358.24V276.347H1320.42V278.347ZM1302.69 257.234C1300.75 268.252 1309.23 278.347 1320.42 278.347V276.347C1310.47 276.347 1302.94 267.374 1304.66 257.58L1302.69 257.234ZM1344.92 16.6782L1302.69 257.234L1304.66 257.58L1346.89 17.024L1344.92 16.6782ZM1362.65 1.79102C1353.91 1.79102 1346.44 8.06967 1344.92 16.6782L1346.89 17.024C1348.24 9.37203 1354.88 3.79102 1362.65 3.79102V1.79102ZM1400.46 1.79102H1362.65V3.79102H1400.46V1.79102ZM1400.73 1.79305C1400.64 1.7917 1400.55 1.79102 1400.46 1.79102V3.79102C1400.54 3.79102 1400.62 3.79162 1400.7 3.79283L1400.73 1.79305ZM1401.29 1.79102C1401.09 1.79102 1400.9 1.79167 1400.71 1.79296L1400.72 3.79292C1400.91 3.79165 1401.1 3.79102 1401.29 3.79102V1.79102ZM1510.05 1.79102H1401.29V3.79102H1510.05V1.79102ZM1527.79 22.8297C1529.68 11.8343 1521.21 1.79102 1510.05 1.79102V3.79102C1519.97 3.79102 1527.5 12.7183 1525.82 22.4921L1527.79 22.8297ZM1524.11 44.3541L1527.79 22.8297L1525.82 22.4921L1522.14 44.0165L1524.11 44.3541ZM1506.37 59.3154C1515.13 59.3154 1522.63 52.9968 1524.11 44.3541L1522.14 44.0165C1520.82 51.6989 1514.16 57.3154 1506.37 57.3154V59.3154ZM1430.52 59.3154H1506.37V57.3154H1430.52V59.3154ZM1414.55 62.8499C1415.79 61.7391 1417.7 60.8453 1420.39 60.2347C1423.07 59.6262 1426.44 59.3154 1430.52 59.3154V57.3154C1426.35 57.3154 1422.82 57.6316 1419.94 58.2844C1417.08 58.9351 1414.8 59.9366 1413.21 61.3623L1414.55 62.8499ZM1412.28 64.8989C1413.04 64.2058 1413.8 63.5206 1414.55 62.8535L1413.22 61.3586C1412.46 62.0354 1411.69 62.7289 1410.94 63.4206L1412.28 64.8989ZM1412.3 64.8828L1412.3 64.8817L1410.92 63.4378L1410.92 63.4388L1412.3 64.8828ZM1412.3 64.8799L1412.31 64.8774L1410.91 63.4442L1410.91 63.4467L1412.3 64.8799ZM1401.9 115.265C1404.65 99.6055 1407.19 85.155 1410.05 68.9419L1408.08 68.5945C1405.22 84.8083 1402.68 99.2594 1399.93 114.919L1401.9 115.265ZM1401.83 115.621L1401.9 115.266L1399.93 114.919L1399.86 115.274L1401.83 115.621ZM1401.65 116.693L1401.83 115.621L1399.86 115.275L1399.68 116.347L1401.65 116.693ZM703.635 1.81891C704.165 1.81896 704.621 2.24563 704.621 2.80496H702.621C702.621 3.3797 703.09 3.81886 703.635 3.81891L703.635 1.81891ZM742.311 11.1147C734.226 4.86204 721.253 1.82054 703.635 1.81891L703.635 3.81891C721.114 3.82052 733.535 6.85542 741.088 12.6967L742.311 11.1147ZM755.201 40.1296C754.68 27.1338 750.431 17.3945 742.311 11.1147L741.088 12.6967C748.61 18.5143 752.697 27.6175 753.203 40.2098L755.201 40.1296ZM755.115 50.5671C755.317 46.996 755.345 43.5346 755.201 40.1274L753.203 40.212C753.344 43.5502 753.316 46.9457 753.119 50.4546L755.115 50.5671ZM753.504 62.5303C754.273 58.1552 754.911 54.1726 755.115 50.5674L753.119 50.4542C752.922 53.929 752.304 57.8068 751.534 62.1839L753.504 62.5303ZM726.471 216.42L753.504 62.5301L751.534 62.1841L724.501 216.074L726.471 216.42ZM704.989 261.883C715.646 251.931 722.909 236.762 726.471 216.42L724.501 216.075C720.986 236.15 713.862 250.861 703.624 260.421L704.989 261.883ZM655.524 276.786C677.709 276.786 694.278 271.886 704.989 261.883L703.624 260.421C693.441 269.931 677.469 274.786 655.524 274.786V276.786ZM573.185 276.786H655.524V274.786H573.185V276.786ZM555.313 335.304L564.321 284.223L562.352 283.876L553.344 334.956L555.313 335.304ZM537.587 350.178C546.322 350.178 553.796 343.906 555.313 335.304L553.344 334.956C551.995 342.603 545.352 348.178 537.587 348.178V350.178ZM499.778 350.178H537.587V348.178H499.778V350.178ZM482.052 329.053C480.109 340.074 488.588 350.178 499.778 350.178V348.178C489.831 348.178 482.295 339.197 484.021 329.4L482.052 329.053ZM537.115 16.6664L482.052 329.053L484.021 329.4L539.085 17.0136L537.115 16.6664ZM554.842 1.79102C546.106 1.79102 538.632 8.06332 537.115 16.6664L539.085 17.0136C540.433 9.3664 547.077 3.79102 554.842 3.79102V1.79102ZM586.517 1.79102H554.842V3.79102H586.517V1.79102ZM592.676 1.79102H586.517V3.79102H592.676V1.79102ZM703.607 1.79102H592.676V3.79102H703.607V1.79102ZM704.621 2.80496C704.621 2.24717 704.169 1.79102 703.607 1.79102V3.79102C703.06 3.79102 702.621 3.34735 702.621 2.80496H704.621ZM655.039 57.3154H611.535V59.3154H655.039V57.3154ZM669.156 60.0225C666.403 58.1687 661.622 57.3154 655.039 57.3154V59.3154C661.586 59.3154 665.825 60.1904 668.039 61.6814L669.156 60.0225ZM673.535 68.8971C673.385 64.9576 671.969 61.9167 669.156 60.0225L668.039 61.6814C670.193 63.1321 671.404 65.4986 671.537 68.9735L673.535 68.8971ZM673.418 72.8225C673.535 71.6153 673.595 70.2855 673.535 68.8922L671.537 68.9785C671.593 70.2609 671.537 71.4956 671.427 72.6298L673.418 72.8225ZM672.809 77.1871C673.097 75.498 673.301 74.0241 673.418 72.8235L671.428 72.6288C671.316 73.7696 671.12 75.1945 670.838 76.8504L672.809 77.1871ZM650.286 201.263L672.807 77.1973L670.839 76.8401L648.318 200.906L650.286 201.263ZM643.6 217.219C646.697 214.469 648.882 209.01 650.286 201.263L648.318 200.906C646.924 208.601 644.827 213.456 642.272 215.723L643.6 217.219ZM626.294 221.262C630.463 221.262 633.997 220.945 636.871 220.293C639.735 219.642 642.016 218.64 643.604 217.215L642.268 215.727C641.031 216.838 639.115 217.732 636.428 218.342C633.749 218.951 630.375 219.262 626.294 219.262V221.262ZM586.503 221.262H626.294V219.262H586.503V221.262ZM600.703 66.4051L575.67 208.351L577.64 208.699L602.672 66.7524L600.703 66.4051ZM974.81 1.81891C975.345 1.81896 975.796 2.25122 975.796 2.80496H973.796C973.796 3.37411 974.259 3.81886 974.81 3.81891L974.81 1.81891ZM1013.49 11.1146C1005.4 4.86205 992.427 1.82054 974.81 1.81891L974.81 3.81891C992.287 3.82052 1004.71 6.85541 1012.26 12.6968L1013.49 11.1146ZM1026.38 40.1295C1025.85 27.1339 1021.61 17.3945 1013.49 11.1147L1012.26 12.6967C1019.78 18.5142 1023.87 27.6174 1024.38 40.2099L1026.38 40.1295ZM1026.29 50.5671C1026.49 46.996 1026.52 43.5347 1026.38 40.1277L1024.38 40.2117C1024.52 43.5501 1024.49 46.9457 1024.29 50.4546L1026.29 50.5671ZM1024.68 62.5306C1025.45 58.1552 1026.09 54.1725 1026.29 50.5671L1024.29 50.4546C1024.1 53.9291 1023.48 57.8067 1022.71 62.1836L1024.68 62.5306ZM997.646 216.42L1024.68 62.5301L1022.71 62.1841L995.676 216.074L997.646 216.42ZM976.163 261.883C986.82 251.931 994.083 236.762 997.646 216.42L995.676 216.075C992.16 236.15 985.036 250.861 974.798 260.421L976.163 261.883ZM926.699 276.786C948.883 276.786 965.452 271.886 976.163 261.883L974.798 260.421C964.615 269.931 948.643 274.786 926.699 274.786V276.786ZM844.355 276.786H926.699V274.786H844.355V276.786ZM833.522 283.877C832.777 288.108 832.032 292.338 831.287 296.568L833.257 296.915C834.002 292.685 834.747 288.454 835.492 284.224L833.522 283.877ZM831.287 296.568C829.034 309.365 826.78 322.161 824.521 334.963L826.49 335.311C828.75 322.508 831.003 309.711 833.257 296.915L831.287 296.568ZM824.521 334.963C823.172 342.607 816.529 348.178 808.767 348.178V350.178C817.499 350.178 824.972 343.91 826.49 335.311L824.521 334.963ZM808.767 348.178H770.953V350.178H808.767V348.178ZM770.953 348.178C761.005 348.178 753.469 339.197 755.195 329.4L753.226 329.053C751.283 340.074 759.762 350.178 770.953 350.178V348.178ZM755.195 329.4L810.259 17.0136L808.289 16.6664L753.226 329.053L755.195 329.4ZM810.259 17.0136C811.607 9.36639 818.251 3.79102 826.016 3.79102V1.79102C817.28 1.79102 809.806 8.06332 808.289 16.6664L810.259 17.0136ZM826.016 3.79102H857.692V1.79102H826.016V3.79102ZM857.692 3.79102H863.826V1.79102H857.692V3.79102ZM974.782 1.79102H863.826V3.79102H974.782V1.79102ZM975.796 2.80496C975.796 2.24432 975.341 1.79102 974.782 1.79102V3.79102C974.238 3.79102 973.796 3.3502 973.796 2.80496H975.796ZM882.666 59.3154H926.214V57.3154H882.666V59.3154ZM926.214 59.3154C932.761 59.3154 937 60.1903 939.214 61.6814L940.331 60.0225C937.578 58.1687 932.797 57.3154 926.214 57.3154V59.3154ZM939.214 61.6813C941.367 63.132 942.578 65.4987 942.712 68.9738L944.711 68.8968C944.559 64.9575 943.143 61.9168 940.331 60.0226L939.214 61.6813ZM942.712 68.9776C942.766 70.2611 942.712 71.496 942.602 72.6289L944.592 72.8234C944.71 71.6149 944.769 70.2853 944.71 68.893L942.712 68.9776ZM942.602 72.6288C942.49 73.7696 942.294 75.1945 942.011 76.8504L943.983 77.1871C944.271 75.4981 944.475 74.0241 944.592 72.8235L942.602 72.6288ZM942.013 76.8401L919.492 200.906L921.46 201.263L943.981 77.1973L942.013 76.8401ZM919.492 200.906C918.098 208.601 916.001 213.456 913.446 215.723L914.774 217.219C917.871 214.469 920.056 209.01 921.46 201.263L919.492 200.906ZM913.442 215.727C912.204 216.838 910.289 217.732 907.602 218.342C904.923 218.951 901.549 219.262 897.469 219.262V221.262C901.637 221.262 905.171 220.945 908.045 220.293C910.909 219.642 913.19 218.64 914.778 217.215L913.442 215.727ZM897.469 219.262H846.957V221.262H897.469V219.262ZM845.446 216.273L844.99 218.921L846.961 219.261L847.417 216.613L845.446 216.273ZM862.929 117.007C858.458 142.449 853.374 171.379 845.447 216.27L847.417 216.617C855.344 171.726 860.428 142.795 864.899 117.353L862.929 117.007ZM871.834 66.4044C868.688 84.241 865.948 99.829 862.929 117.007L864.899 117.353C867.918 100.175 870.657 84.5877 873.803 66.7518L871.834 66.4044ZM846.957 219.262C846.955 219.262 846.955 219.262 846.956 219.262C846.957 219.262 846.958 219.262 846.959 219.263C846.96 219.264 846.96 219.264 846.959 219.263C846.958 219.262 846.959 219.262 846.959 219.263C846.959 219.264 846.959 219.265 846.96 219.266C846.96 219.267 846.959 219.267 846.96 219.265L844.99 218.916C844.774 220.14 845.715 221.262 846.957 221.262V219.262ZM882.666 57.3154C877.328 57.3154 872.761 61.1483 871.834 66.4044L873.803 66.7518C874.562 62.4514 878.299 59.3154 882.666 59.3154V57.3154ZM844.355 274.786C839.017 274.786 834.449 278.619 833.522 283.877L835.492 284.224C836.25 279.922 839.987 276.786 844.355 276.786V274.786ZM586.503 219.262C580.907 219.262 576.668 214.21 577.64 208.699L575.67 208.351C574.483 215.087 579.664 221.262 586.503 221.262V219.262ZM611.535 57.3154C606.197 57.3154 601.63 61.148 600.703 66.4051L602.672 66.7524C603.431 62.4512 607.168 59.3154 611.535 59.3154V57.3154ZM573.185 274.786C567.846 274.786 563.279 278.619 562.352 283.876L564.321 284.223C565.08 279.922 568.817 276.786 573.185 276.786V274.786ZM1410.93 63.4242C1409.44 64.7838 1408.43 66.6 1408.08 68.5945L1410.05 68.9419C1410.32 67.3893 1411.11 65.9688 1412.28 64.9024L1410.93 63.4242Z" fill="#F70FE8" mask="url(#path-1-inside-1_25_978)"/>
</g>
</svg>
