<svg width="39" height="39" viewBox="0 0 39 39" fill="none" xmlns="http://www.w3.org/2000/svg">
<path d="M32.6696 38.755C30.9022 38.755 29.2451 37.985 28.1022 36.6623C25.404 38.032 22.3959 38.755 19.3579 38.755C8.68472 38.755 0 30.0605 0 19.3797C0 8.69871 8.68472 0 19.3579 0C30.0268 0 38.7073 8.71998 38.7115 19.435L38.3036 19.4391L38.7115 19.435V19.4391V32.7063C38.7115 36.0412 36.0008 38.755 32.6696 38.755ZM28.612 34.4503L29.0453 35.1054C29.8526 36.3263 31.2081 37.0536 32.6654 37.0536C35.0618 37.0536 37.0078 35.1012 37.0078 32.7063V19.4435C37.0078 9.66005 29.0879 1.70571 19.3537 1.70571C9.61948 1.70146 1.69955 9.63028 1.69955 19.3797C1.69955 29.129 9.61948 37.0579 19.3579 37.0579C22.3533 37.0579 25.319 36.288 27.9279 34.8332L28.612 34.4503Z" fill="white"/>
<path fill-rule="evenodd" clip-rule="evenodd" d="M18.5974 34.3341C26.8445 34.6532 33.7913 28.2047 34.1015 19.9355C34.1312 19.2209 34.11 18.5275 34.0378 17.8342C34.0675 18.6722 33.8423 19.5527 33.324 20.1823C32.1555 21.5988 30.1458 21.2584 29.8143 19.7995C29.6401 19.004 29.9801 18.0384 30.6598 17.5833C26.8912 16.9835 25.8204 20.6247 23.8489 22.56C21.7245 24.6529 18.4317 23.8956 17.8707 21.4115C17.5606 20.0334 18.1384 18.3574 19.3068 17.5407C17.3439 17.0856 15.8483 17.664 14.4674 19.0508C13.1545 20.3567 12.2155 22.0922 10.6264 23.0236C9.13079 23.9127 7.05309 23.9977 5.72319 22.7429C4.7417 21.8198 4.27857 20.3396 4.23608 18.7786C3.92167 27.0562 10.3502 34.0108 18.5974 34.3341Z" fill="url(#paint0_linear_25_53)"/>
<path fill-rule="evenodd" clip-rule="evenodd" d="M17.824 13.1044C25.3785 13.0534 24.3375 3.81017 17.7305 4.43972C10.4012 5.14158 4.52924 11.1988 4.24033 18.7873C4.2828 20.3483 4.74593 21.8287 5.72742 22.7517C7.05732 24.0023 9.13504 23.9214 10.6306 23.0325C11.2807 22.6581 11.8161 22.1435 12.3132 21.5819C10.8771 23.2579 8.6804 22.4497 8.55718 20.2974C8.44246 18.196 9.59815 16.0735 11.2637 14.8314C13.0653 13.4745 15.4191 13.1129 17.824 13.1044Z" fill="url(#paint1_linear_25_53)"/>
<path fill-rule="evenodd" clip-rule="evenodd" d="M27.3628 8.15762C28.7564 8.20866 29.8399 9.3784 29.7805 10.7779C29.7294 12.1646 28.561 13.2535 27.1801 13.1982C25.7865 13.1344 24.7116 11.9646 24.7668 10.5779C24.8135 9.17849 25.9776 8.10231 27.3628 8.15762Z" fill="url(#paint2_linear_25_53)"/>
<path fill-rule="evenodd" clip-rule="evenodd" d="M31.1188 12.9494C31.9431 12.9792 32.5846 13.6725 32.5549 14.502C32.5252 15.3314 31.8198 15.9822 30.9956 15.9524C30.1713 15.9099 29.5296 15.2166 29.5595 14.3871C29.5934 13.5619 30.2945 12.9196 31.1188 12.9494Z" fill="url(#paint3_linear_25_53)"/>
<defs>
<linearGradient id="paint0_linear_25_53" x1="20.9363" y1="11.8733" x2="16.3662" y2="32.6691" gradientUnits="userSpaceOnUse">
<stop stop-color="#521C89"/>
<stop offset="0.5164" stop-color="#8D1AF1"/>
<stop offset="1" stop-color="#FFA5F6"/>
</linearGradient>
<linearGradient id="paint1_linear_25_53" x1="11.4876" y1="22.648" x2="14.7882" y2="8.69976" gradientUnits="userSpaceOnUse">
<stop stop-color="#1837D8"/>
<stop offset="0.5074" stop-color="#00C1FF"/>
<stop offset="1" stop-color="#70E6FF"/>
</linearGradient>
<linearGradient id="paint2_linear_25_53" x1="23.7571" y1="25.5515" x2="27.0577" y2="11.6033" gradientUnits="userSpaceOnUse">
<stop stop-color="#1837D8"/>
<stop offset="0.5074" stop-color="#00C1FF"/>
<stop offset="1" stop-color="#70E6FF"/>
</linearGradient>
<linearGradient id="paint3_linear_25_53" x1="28.1877" y1="26.6021" x2="31.4882" y2="12.6538" gradientUnits="userSpaceOnUse">
<stop stop-color="#1837D8"/>
<stop offset="0.5074" stop-color="#00C1FF"/>
<stop offset="1" stop-color="#70E6FF"/>
</linearGradient>
</defs>
</svg>
